G04 #@! TF.GenerationSoftware,KiCad,Pcbnew,9.0.2*
G04 #@! TF.CreationDate,2025-07-01T12:20:16+05:30*
G04 #@! TF.ProjectId,solder,736f6c64-6572-42e6-9b69-6361645f7063,rev?*
G04 #@! TF.SameCoordinates,Original*
G04 #@! TF.FileFunction,Legend,Top*
G04 #@! TF.FilePolarity,Positive*
%FSLAX46Y46*%
G04 Gerber Fmt 4.6, Leading zero omitted, Abs format (unit mm)*
G04 Created by KiCad (PCBNEW 9.0.2) date 2025-07-01 12:20:16*
%MOMM*%
%LPD*%
G01*
G04 APERTURE LIST*
G04 Aperture macros list*
%AMRoundRect*
0 Rectangle with rounded corners*
0 $1 Rounding radius*
0 $2 $3 $4 $5 $6 $7 $8 $9 X,Y pos of 4 corners*
0 Add a 4 corners polygon primitive as box body*
4,1,4,$2,$3,$4,$5,$6,$7,$8,$9,$2,$3,0*
0 Add four circle primitives for the rounded corners*
1,1,$1+$1,$2,$3*
1,1,$1+$1,$4,$5*
1,1,$1+$1,$6,$7*
1,1,$1+$1,$8,$9*
0 Add four rect primitives between the rounded corners*
20,1,$1+$1,$2,$3,$4,$5,0*
20,1,$1+$1,$4,$5,$6,$7,0*
20,1,$1+$1,$6,$7,$8,$9,0*
20,1,$1+$1,$8,$9,$2,$3,0*%
G04 Aperture macros list end*
%ADD10C,0.500000*%
%ADD11C,0.150000*%
%ADD12C,0.000000*%
%ADD13C,0.120000*%
%ADD14R,1.700000X1.700000*%
%ADD15C,1.700000*%
%ADD16C,2.000000*%
%ADD17C,1.600000*%
%ADD18C,17.800000*%
%ADD19R,1.270000X5.080000*%
%ADD20C,1.800000*%
%ADD21R,1.800000X1.800000*%
%ADD22RoundRect,0.275000X0.275000X0.625000X-0.275000X0.625000X-0.275000X-0.625000X0.275000X-0.625000X0*%
%ADD23R,1.100000X1.800000*%
G04 APERTURE END LIST*
D10*
X86655137Y-95901619D02*
X87321804Y-95901619D01*
X87607518Y-96949238D02*
X86655137Y-96949238D01*
X86655137Y-96949238D02*
X86655137Y-94949238D01*
X86655137Y-94949238D02*
X87607518Y-94949238D01*
X88464661Y-96949238D02*
X88464661Y-94949238D01*
X88464661Y-94949238D02*
X89607518Y-96949238D01*
X89607518Y-96949238D02*
X89607518Y-94949238D01*
X91607518Y-95044476D02*
X91417042Y-94949238D01*
X91417042Y-94949238D02*
X91131328Y-94949238D01*
X91131328Y-94949238D02*
X90845613Y-95044476D01*
X90845613Y-95044476D02*
X90655137Y-95234952D01*
X90655137Y-95234952D02*
X90559899Y-95425428D01*
X90559899Y-95425428D02*
X90464661Y-95806380D01*
X90464661Y-95806380D02*
X90464661Y-96092095D01*
X90464661Y-96092095D02*
X90559899Y-96473047D01*
X90559899Y-96473047D02*
X90655137Y-96663523D01*
X90655137Y-96663523D02*
X90845613Y-96854000D01*
X90845613Y-96854000D02*
X91131328Y-96949238D01*
X91131328Y-96949238D02*
X91321804Y-96949238D01*
X91321804Y-96949238D02*
X91607518Y-96854000D01*
X91607518Y-96854000D02*
X91702756Y-96758761D01*
X91702756Y-96758761D02*
X91702756Y-96092095D01*
X91702756Y-96092095D02*
X91321804Y-96092095D01*
X92559899Y-96949238D02*
X92559899Y-94949238D01*
X93512280Y-96949238D02*
X93512280Y-94949238D01*
X93512280Y-94949238D02*
X94655137Y-96949238D01*
X94655137Y-96949238D02*
X94655137Y-94949238D01*
X95607518Y-95901619D02*
X96274185Y-95901619D01*
X96559899Y-96949238D02*
X95607518Y-96949238D01*
X95607518Y-96949238D02*
X95607518Y-94949238D01*
X95607518Y-94949238D02*
X96559899Y-94949238D01*
X113679899Y-98544000D02*
X113965613Y-98639238D01*
X113965613Y-98639238D02*
X114441804Y-98639238D01*
X114441804Y-98639238D02*
X114632280Y-98544000D01*
X114632280Y-98544000D02*
X114727518Y-98448761D01*
X114727518Y-98448761D02*
X114822756Y-98258285D01*
X114822756Y-98258285D02*
X114822756Y-98067809D01*
X114822756Y-98067809D02*
X114727518Y-97877333D01*
X114727518Y-97877333D02*
X114632280Y-97782095D01*
X114632280Y-97782095D02*
X114441804Y-97686857D01*
X114441804Y-97686857D02*
X114060851Y-97591619D01*
X114060851Y-97591619D02*
X113870375Y-97496380D01*
X113870375Y-97496380D02*
X113775137Y-97401142D01*
X113775137Y-97401142D02*
X113679899Y-97210666D01*
X113679899Y-97210666D02*
X113679899Y-97020190D01*
X113679899Y-97020190D02*
X113775137Y-96829714D01*
X113775137Y-96829714D02*
X113870375Y-96734476D01*
X113870375Y-96734476D02*
X114060851Y-96639238D01*
X114060851Y-96639238D02*
X114537042Y-96639238D01*
X114537042Y-96639238D02*
X114822756Y-96734476D01*
X115679899Y-98639238D02*
X115679899Y-96639238D01*
X115679899Y-97591619D02*
X116822756Y-97591619D01*
X116822756Y-98639238D02*
X116822756Y-96639238D01*
X117775137Y-98639238D02*
X117775137Y-96639238D01*
X118727518Y-97591619D02*
X119394185Y-97591619D01*
X119679899Y-98639238D02*
X118727518Y-98639238D01*
X118727518Y-98639238D02*
X118727518Y-96639238D01*
X118727518Y-96639238D02*
X119679899Y-96639238D01*
X121489423Y-98639238D02*
X120537042Y-98639238D01*
X120537042Y-98639238D02*
X120537042Y-96639238D01*
X122156090Y-98639238D02*
X122156090Y-96639238D01*
X122156090Y-96639238D02*
X122632280Y-96639238D01*
X122632280Y-96639238D02*
X122917995Y-96734476D01*
X122917995Y-96734476D02*
X123108471Y-96924952D01*
X123108471Y-96924952D02*
X123203709Y-97115428D01*
X123203709Y-97115428D02*
X123298947Y-97496380D01*
X123298947Y-97496380D02*
X123298947Y-97782095D01*
X123298947Y-97782095D02*
X123203709Y-98163047D01*
X123203709Y-98163047D02*
X123108471Y-98353523D01*
X123108471Y-98353523D02*
X122917995Y-98544000D01*
X122917995Y-98544000D02*
X122632280Y-98639238D01*
X122632280Y-98639238D02*
X122156090Y-98639238D01*
X124060852Y-98544000D02*
X124346566Y-98639238D01*
X124346566Y-98639238D02*
X124822757Y-98639238D01*
X124822757Y-98639238D02*
X125013233Y-98544000D01*
X125013233Y-98544000D02*
X125108471Y-98448761D01*
X125108471Y-98448761D02*
X125203709Y-98258285D01*
X125203709Y-98258285D02*
X125203709Y-98067809D01*
X125203709Y-98067809D02*
X125108471Y-97877333D01*
X125108471Y-97877333D02*
X125013233Y-97782095D01*
X125013233Y-97782095D02*
X124822757Y-97686857D01*
X124822757Y-97686857D02*
X124441804Y-97591619D01*
X124441804Y-97591619D02*
X124251328Y-97496380D01*
X124251328Y-97496380D02*
X124156090Y-97401142D01*
X124156090Y-97401142D02*
X124060852Y-97210666D01*
X124060852Y-97210666D02*
X124060852Y-97020190D01*
X124060852Y-97020190D02*
X124156090Y-96829714D01*
X124156090Y-96829714D02*
X124251328Y-96734476D01*
X124251328Y-96734476D02*
X124441804Y-96639238D01*
X124441804Y-96639238D02*
X124917995Y-96639238D01*
X124917995Y-96639238D02*
X125203709Y-96734476D01*
X58887994Y-98368761D02*
X58792756Y-98464000D01*
X58792756Y-98464000D02*
X58507042Y-98559238D01*
X58507042Y-98559238D02*
X58316566Y-98559238D01*
X58316566Y-98559238D02*
X58030851Y-98464000D01*
X58030851Y-98464000D02*
X57840375Y-98273523D01*
X57840375Y-98273523D02*
X57745137Y-98083047D01*
X57745137Y-98083047D02*
X57649899Y-97702095D01*
X57649899Y-97702095D02*
X57649899Y-97416380D01*
X57649899Y-97416380D02*
X57745137Y-97035428D01*
X57745137Y-97035428D02*
X57840375Y-96844952D01*
X57840375Y-96844952D02*
X58030851Y-96654476D01*
X58030851Y-96654476D02*
X58316566Y-96559238D01*
X58316566Y-96559238D02*
X58507042Y-96559238D01*
X58507042Y-96559238D02*
X58792756Y-96654476D01*
X58792756Y-96654476D02*
X58887994Y-96749714D01*
X60126089Y-96559238D02*
X60507042Y-96559238D01*
X60507042Y-96559238D02*
X60697518Y-96654476D01*
X60697518Y-96654476D02*
X60887994Y-96844952D01*
X60887994Y-96844952D02*
X60983232Y-97225904D01*
X60983232Y-97225904D02*
X60983232Y-97892571D01*
X60983232Y-97892571D02*
X60887994Y-98273523D01*
X60887994Y-98273523D02*
X60697518Y-98464000D01*
X60697518Y-98464000D02*
X60507042Y-98559238D01*
X60507042Y-98559238D02*
X60126089Y-98559238D01*
X60126089Y-98559238D02*
X59935613Y-98464000D01*
X59935613Y-98464000D02*
X59745137Y-98273523D01*
X59745137Y-98273523D02*
X59649899Y-97892571D01*
X59649899Y-97892571D02*
X59649899Y-97225904D01*
X59649899Y-97225904D02*
X59745137Y-96844952D01*
X59745137Y-96844952D02*
X59935613Y-96654476D01*
X59935613Y-96654476D02*
X60126089Y-96559238D01*
X61840375Y-98559238D02*
X61840375Y-96559238D01*
X61840375Y-96559238D02*
X62507042Y-97987809D01*
X62507042Y-97987809D02*
X63173708Y-96559238D01*
X63173708Y-96559238D02*
X63173708Y-98559238D01*
X64126089Y-98559238D02*
X64126089Y-96559238D01*
X64126089Y-96559238D02*
X64792756Y-97987809D01*
X64792756Y-97987809D02*
X65459422Y-96559238D01*
X65459422Y-96559238D02*
X65459422Y-98559238D01*
X66316565Y-98464000D02*
X66602279Y-98559238D01*
X66602279Y-98559238D02*
X67078470Y-98559238D01*
X67078470Y-98559238D02*
X67268946Y-98464000D01*
X67268946Y-98464000D02*
X67364184Y-98368761D01*
X67364184Y-98368761D02*
X67459422Y-98178285D01*
X67459422Y-98178285D02*
X67459422Y-97987809D01*
X67459422Y-97987809D02*
X67364184Y-97797333D01*
X67364184Y-97797333D02*
X67268946Y-97702095D01*
X67268946Y-97702095D02*
X67078470Y-97606857D01*
X67078470Y-97606857D02*
X66697517Y-97511619D01*
X66697517Y-97511619D02*
X66507041Y-97416380D01*
X66507041Y-97416380D02*
X66411803Y-97321142D01*
X66411803Y-97321142D02*
X66316565Y-97130666D01*
X66316565Y-97130666D02*
X66316565Y-96940190D01*
X66316565Y-96940190D02*
X66411803Y-96749714D01*
X66411803Y-96749714D02*
X66507041Y-96654476D01*
X66507041Y-96654476D02*
X66697517Y-96559238D01*
X66697517Y-96559238D02*
X67173708Y-96559238D01*
X67173708Y-96559238D02*
X67459422Y-96654476D01*
X98377518Y-113039238D02*
X97425137Y-113039238D01*
X97425137Y-113039238D02*
X97425137Y-111039238D01*
X98948947Y-112467809D02*
X99901328Y-112467809D01*
X98758471Y-113039238D02*
X99425137Y-111039238D01*
X99425137Y-111039238D02*
X100091804Y-113039238D01*
X100663233Y-112944000D02*
X100948947Y-113039238D01*
X100948947Y-113039238D02*
X101425138Y-113039238D01*
X101425138Y-113039238D02*
X101615614Y-112944000D01*
X101615614Y-112944000D02*
X101710852Y-112848761D01*
X101710852Y-112848761D02*
X101806090Y-112658285D01*
X101806090Y-112658285D02*
X101806090Y-112467809D01*
X101806090Y-112467809D02*
X101710852Y-112277333D01*
X101710852Y-112277333D02*
X101615614Y-112182095D01*
X101615614Y-112182095D02*
X101425138Y-112086857D01*
X101425138Y-112086857D02*
X101044185Y-111991619D01*
X101044185Y-111991619D02*
X100853709Y-111896380D01*
X100853709Y-111896380D02*
X100758471Y-111801142D01*
X100758471Y-111801142D02*
X100663233Y-111610666D01*
X100663233Y-111610666D02*
X100663233Y-111420190D01*
X100663233Y-111420190D02*
X100758471Y-111229714D01*
X100758471Y-111229714D02*
X100853709Y-111134476D01*
X100853709Y-111134476D02*
X101044185Y-111039238D01*
X101044185Y-111039238D02*
X101520376Y-111039238D01*
X101520376Y-111039238D02*
X101806090Y-111134476D01*
X102663233Y-111991619D02*
X103329900Y-111991619D01*
X103615614Y-113039238D02*
X102663233Y-113039238D01*
X102663233Y-113039238D02*
X102663233Y-111039238D01*
X102663233Y-111039238D02*
X103615614Y-111039238D01*
X105615614Y-113039238D02*
X104948947Y-112086857D01*
X104472757Y-113039238D02*
X104472757Y-111039238D01*
X104472757Y-111039238D02*
X105234662Y-111039238D01*
X105234662Y-111039238D02*
X105425138Y-111134476D01*
X105425138Y-111134476D02*
X105520376Y-111229714D01*
X105520376Y-111229714D02*
X105615614Y-111420190D01*
X105615614Y-111420190D02*
X105615614Y-111705904D01*
X105615614Y-111705904D02*
X105520376Y-111896380D01*
X105520376Y-111896380D02*
X105425138Y-111991619D01*
X105425138Y-111991619D02*
X105234662Y-112086857D01*
X105234662Y-112086857D02*
X104472757Y-112086857D01*
X106377519Y-112944000D02*
X106663233Y-113039238D01*
X106663233Y-113039238D02*
X107139424Y-113039238D01*
X107139424Y-113039238D02*
X107329900Y-112944000D01*
X107329900Y-112944000D02*
X107425138Y-112848761D01*
X107425138Y-112848761D02*
X107520376Y-112658285D01*
X107520376Y-112658285D02*
X107520376Y-112467809D01*
X107520376Y-112467809D02*
X107425138Y-112277333D01*
X107425138Y-112277333D02*
X107329900Y-112182095D01*
X107329900Y-112182095D02*
X107139424Y-112086857D01*
X107139424Y-112086857D02*
X106758471Y-111991619D01*
X106758471Y-111991619D02*
X106567995Y-111896380D01*
X106567995Y-111896380D02*
X106472757Y-111801142D01*
X106472757Y-111801142D02*
X106377519Y-111610666D01*
X106377519Y-111610666D02*
X106377519Y-111420190D01*
X106377519Y-111420190D02*
X106472757Y-111229714D01*
X106472757Y-111229714D02*
X106567995Y-111134476D01*
X106567995Y-111134476D02*
X106758471Y-111039238D01*
X106758471Y-111039238D02*
X107234662Y-111039238D01*
X107234662Y-111039238D02*
X107520376Y-111134476D01*
D11*
X90080476Y-101164819D02*
X90080476Y-100164819D01*
X90080476Y-100164819D02*
X90413809Y-100879104D01*
X90413809Y-100879104D02*
X90747142Y-100164819D01*
X90747142Y-100164819D02*
X90747142Y-101164819D01*
X91747142Y-101164819D02*
X91175714Y-101164819D01*
X91461428Y-101164819D02*
X91461428Y-100164819D01*
X91461428Y-100164819D02*
X91366190Y-100307676D01*
X91366190Y-100307676D02*
X91270952Y-100402914D01*
X91270952Y-100402914D02*
X91175714Y-100450533D01*
X89516667Y-85407200D02*
X89659524Y-85454819D01*
X89659524Y-85454819D02*
X89897619Y-85454819D01*
X89897619Y-85454819D02*
X89992857Y-85407200D01*
X89992857Y-85407200D02*
X90040476Y-85359580D01*
X90040476Y-85359580D02*
X90088095Y-85264342D01*
X90088095Y-85264342D02*
X90088095Y-85169104D01*
X90088095Y-85169104D02*
X90040476Y-85073866D01*
X90040476Y-85073866D02*
X89992857Y-85026247D01*
X89992857Y-85026247D02*
X89897619Y-84978628D01*
X89897619Y-84978628D02*
X89707143Y-84931009D01*
X89707143Y-84931009D02*
X89611905Y-84883390D01*
X89611905Y-84883390D02*
X89564286Y-84835771D01*
X89564286Y-84835771D02*
X89516667Y-84740533D01*
X89516667Y-84740533D02*
X89516667Y-84645295D01*
X89516667Y-84645295D02*
X89564286Y-84550057D01*
X89564286Y-84550057D02*
X89611905Y-84502438D01*
X89611905Y-84502438D02*
X89707143Y-84454819D01*
X89707143Y-84454819D02*
X89945238Y-84454819D01*
X89945238Y-84454819D02*
X90088095Y-84502438D01*
X90421429Y-84454819D02*
X90659524Y-85454819D01*
X90659524Y-85454819D02*
X90850000Y-84740533D01*
X90850000Y-84740533D02*
X91040476Y-85454819D01*
X91040476Y-85454819D02*
X91278572Y-84454819D01*
X91611905Y-84550057D02*
X91659524Y-84502438D01*
X91659524Y-84502438D02*
X91754762Y-84454819D01*
X91754762Y-84454819D02*
X91992857Y-84454819D01*
X91992857Y-84454819D02*
X92088095Y-84502438D01*
X92088095Y-84502438D02*
X92135714Y-84550057D01*
X92135714Y-84550057D02*
X92183333Y-84645295D01*
X92183333Y-84645295D02*
X92183333Y-84740533D01*
X92183333Y-84740533D02*
X92135714Y-84883390D01*
X92135714Y-84883390D02*
X91564286Y-85454819D01*
X91564286Y-85454819D02*
X92183333Y-85454819D01*
X90683333Y-79229819D02*
X90350000Y-78753628D01*
X90111905Y-79229819D02*
X90111905Y-78229819D01*
X90111905Y-78229819D02*
X90492857Y-78229819D01*
X90492857Y-78229819D02*
X90588095Y-78277438D01*
X90588095Y-78277438D02*
X90635714Y-78325057D01*
X90635714Y-78325057D02*
X90683333Y-78420295D01*
X90683333Y-78420295D02*
X90683333Y-78563152D01*
X90683333Y-78563152D02*
X90635714Y-78658390D01*
X90635714Y-78658390D02*
X90588095Y-78706009D01*
X90588095Y-78706009D02*
X90492857Y-78753628D01*
X90492857Y-78753628D02*
X90111905Y-78753628D01*
X91064286Y-78325057D02*
X91111905Y-78277438D01*
X91111905Y-78277438D02*
X91207143Y-78229819D01*
X91207143Y-78229819D02*
X91445238Y-78229819D01*
X91445238Y-78229819D02*
X91540476Y-78277438D01*
X91540476Y-78277438D02*
X91588095Y-78325057D01*
X91588095Y-78325057D02*
X91635714Y-78420295D01*
X91635714Y-78420295D02*
X91635714Y-78515533D01*
X91635714Y-78515533D02*
X91588095Y-78658390D01*
X91588095Y-78658390D02*
X91016667Y-79229819D01*
X91016667Y-79229819D02*
X91635714Y-79229819D01*
X75004285Y-102601009D02*
X75147142Y-102648628D01*
X75147142Y-102648628D02*
X75194761Y-102696247D01*
X75194761Y-102696247D02*
X75242380Y-102791485D01*
X75242380Y-102791485D02*
X75242380Y-102934342D01*
X75242380Y-102934342D02*
X75194761Y-103029580D01*
X75194761Y-103029580D02*
X75147142Y-103077200D01*
X75147142Y-103077200D02*
X75051904Y-103124819D01*
X75051904Y-103124819D02*
X74670952Y-103124819D01*
X74670952Y-103124819D02*
X74670952Y-102124819D01*
X74670952Y-102124819D02*
X75004285Y-102124819D01*
X75004285Y-102124819D02*
X75099523Y-102172438D01*
X75099523Y-102172438D02*
X75147142Y-102220057D01*
X75147142Y-102220057D02*
X75194761Y-102315295D01*
X75194761Y-102315295D02*
X75194761Y-102410533D01*
X75194761Y-102410533D02*
X75147142Y-102505771D01*
X75147142Y-102505771D02*
X75099523Y-102553390D01*
X75099523Y-102553390D02*
X75004285Y-102601009D01*
X75004285Y-102601009D02*
X74670952Y-102601009D01*
X75528095Y-102124819D02*
X76099523Y-102124819D01*
X75813809Y-103124819D02*
X75813809Y-102124819D01*
X76956666Y-103124819D02*
X76385238Y-103124819D01*
X76670952Y-103124819D02*
X76670952Y-102124819D01*
X76670952Y-102124819D02*
X76575714Y-102267676D01*
X76575714Y-102267676D02*
X76480476Y-102362914D01*
X76480476Y-102362914D02*
X76385238Y-102410533D01*
X52461905Y-88044819D02*
X52461905Y-87044819D01*
X52461905Y-87044819D02*
X52700000Y-87044819D01*
X52700000Y-87044819D02*
X52842857Y-87092438D01*
X52842857Y-87092438D02*
X52938095Y-87187676D01*
X52938095Y-87187676D02*
X52985714Y-87282914D01*
X52985714Y-87282914D02*
X53033333Y-87473390D01*
X53033333Y-87473390D02*
X53033333Y-87616247D01*
X53033333Y-87616247D02*
X52985714Y-87806723D01*
X52985714Y-87806723D02*
X52938095Y-87901961D01*
X52938095Y-87901961D02*
X52842857Y-87997200D01*
X52842857Y-87997200D02*
X52700000Y-88044819D01*
X52700000Y-88044819D02*
X52461905Y-88044819D01*
X53985714Y-88044819D02*
X53414286Y-88044819D01*
X53700000Y-88044819D02*
X53700000Y-87044819D01*
X53700000Y-87044819D02*
X53604762Y-87187676D01*
X53604762Y-87187676D02*
X53509524Y-87282914D01*
X53509524Y-87282914D02*
X53414286Y-87330533D01*
X72436667Y-88207200D02*
X72579524Y-88254819D01*
X72579524Y-88254819D02*
X72817619Y-88254819D01*
X72817619Y-88254819D02*
X72912857Y-88207200D01*
X72912857Y-88207200D02*
X72960476Y-88159580D01*
X72960476Y-88159580D02*
X73008095Y-88064342D01*
X73008095Y-88064342D02*
X73008095Y-87969104D01*
X73008095Y-87969104D02*
X72960476Y-87873866D01*
X72960476Y-87873866D02*
X72912857Y-87826247D01*
X72912857Y-87826247D02*
X72817619Y-87778628D01*
X72817619Y-87778628D02*
X72627143Y-87731009D01*
X72627143Y-87731009D02*
X72531905Y-87683390D01*
X72531905Y-87683390D02*
X72484286Y-87635771D01*
X72484286Y-87635771D02*
X72436667Y-87540533D01*
X72436667Y-87540533D02*
X72436667Y-87445295D01*
X72436667Y-87445295D02*
X72484286Y-87350057D01*
X72484286Y-87350057D02*
X72531905Y-87302438D01*
X72531905Y-87302438D02*
X72627143Y-87254819D01*
X72627143Y-87254819D02*
X72865238Y-87254819D01*
X72865238Y-87254819D02*
X73008095Y-87302438D01*
X73341429Y-87254819D02*
X73579524Y-88254819D01*
X73579524Y-88254819D02*
X73770000Y-87540533D01*
X73770000Y-87540533D02*
X73960476Y-88254819D01*
X73960476Y-88254819D02*
X74198572Y-87254819D01*
X75103333Y-88254819D02*
X74531905Y-88254819D01*
X74817619Y-88254819D02*
X74817619Y-87254819D01*
X74817619Y-87254819D02*
X74722381Y-87397676D01*
X74722381Y-87397676D02*
X74627143Y-87492914D01*
X74627143Y-87492914D02*
X74531905Y-87540533D01*
X102173333Y-121324819D02*
X101840000Y-120848628D01*
X101601905Y-121324819D02*
X101601905Y-120324819D01*
X101601905Y-120324819D02*
X101982857Y-120324819D01*
X101982857Y-120324819D02*
X102078095Y-120372438D01*
X102078095Y-120372438D02*
X102125714Y-120420057D01*
X102125714Y-120420057D02*
X102173333Y-120515295D01*
X102173333Y-120515295D02*
X102173333Y-120658152D01*
X102173333Y-120658152D02*
X102125714Y-120753390D01*
X102125714Y-120753390D02*
X102078095Y-120801009D01*
X102078095Y-120801009D02*
X101982857Y-120848628D01*
X101982857Y-120848628D02*
X101601905Y-120848628D01*
X103030476Y-120658152D02*
X103030476Y-121324819D01*
X102792381Y-120277200D02*
X102554286Y-120991485D01*
X102554286Y-120991485D02*
X103173333Y-120991485D01*
X118048333Y-84794819D02*
X117715000Y-84318628D01*
X117476905Y-84794819D02*
X117476905Y-83794819D01*
X117476905Y-83794819D02*
X117857857Y-83794819D01*
X117857857Y-83794819D02*
X117953095Y-83842438D01*
X117953095Y-83842438D02*
X118000714Y-83890057D01*
X118000714Y-83890057D02*
X118048333Y-83985295D01*
X118048333Y-83985295D02*
X118048333Y-84128152D01*
X118048333Y-84128152D02*
X118000714Y-84223390D01*
X118000714Y-84223390D02*
X117953095Y-84271009D01*
X117953095Y-84271009D02*
X117857857Y-84318628D01*
X117857857Y-84318628D02*
X117476905Y-84318628D01*
X118381667Y-83794819D02*
X119000714Y-83794819D01*
X119000714Y-83794819D02*
X118667381Y-84175771D01*
X118667381Y-84175771D02*
X118810238Y-84175771D01*
X118810238Y-84175771D02*
X118905476Y-84223390D01*
X118905476Y-84223390D02*
X118953095Y-84271009D01*
X118953095Y-84271009D02*
X119000714Y-84366247D01*
X119000714Y-84366247D02*
X119000714Y-84604342D01*
X119000714Y-84604342D02*
X118953095Y-84699580D01*
X118953095Y-84699580D02*
X118905476Y-84747200D01*
X118905476Y-84747200D02*
X118810238Y-84794819D01*
X118810238Y-84794819D02*
X118524524Y-84794819D01*
X118524524Y-84794819D02*
X118429286Y-84747200D01*
X118429286Y-84747200D02*
X118381667Y-84699580D01*
X62628333Y-89754819D02*
X62295000Y-89278628D01*
X62056905Y-89754819D02*
X62056905Y-88754819D01*
X62056905Y-88754819D02*
X62437857Y-88754819D01*
X62437857Y-88754819D02*
X62533095Y-88802438D01*
X62533095Y-88802438D02*
X62580714Y-88850057D01*
X62580714Y-88850057D02*
X62628333Y-88945295D01*
X62628333Y-88945295D02*
X62628333Y-89088152D01*
X62628333Y-89088152D02*
X62580714Y-89183390D01*
X62580714Y-89183390D02*
X62533095Y-89231009D01*
X62533095Y-89231009D02*
X62437857Y-89278628D01*
X62437857Y-89278628D02*
X62056905Y-89278628D01*
X63580714Y-89754819D02*
X63009286Y-89754819D01*
X63295000Y-89754819D02*
X63295000Y-88754819D01*
X63295000Y-88754819D02*
X63199762Y-88897676D01*
X63199762Y-88897676D02*
X63104524Y-88992914D01*
X63104524Y-88992914D02*
X63009286Y-89040533D01*
X127196905Y-88034819D02*
X127196905Y-87034819D01*
X127196905Y-87034819D02*
X127435000Y-87034819D01*
X127435000Y-87034819D02*
X127577857Y-87082438D01*
X127577857Y-87082438D02*
X127673095Y-87177676D01*
X127673095Y-87177676D02*
X127720714Y-87272914D01*
X127720714Y-87272914D02*
X127768333Y-87463390D01*
X127768333Y-87463390D02*
X127768333Y-87606247D01*
X127768333Y-87606247D02*
X127720714Y-87796723D01*
X127720714Y-87796723D02*
X127673095Y-87891961D01*
X127673095Y-87891961D02*
X127577857Y-87987200D01*
X127577857Y-87987200D02*
X127435000Y-88034819D01*
X127435000Y-88034819D02*
X127196905Y-88034819D01*
X128101667Y-87034819D02*
X128720714Y-87034819D01*
X128720714Y-87034819D02*
X128387381Y-87415771D01*
X128387381Y-87415771D02*
X128530238Y-87415771D01*
X128530238Y-87415771D02*
X128625476Y-87463390D01*
X128625476Y-87463390D02*
X128673095Y-87511009D01*
X128673095Y-87511009D02*
X128720714Y-87606247D01*
X128720714Y-87606247D02*
X128720714Y-87844342D01*
X128720714Y-87844342D02*
X128673095Y-87939580D01*
X128673095Y-87939580D02*
X128625476Y-87987200D01*
X128625476Y-87987200D02*
X128530238Y-88034819D01*
X128530238Y-88034819D02*
X128244524Y-88034819D01*
X128244524Y-88034819D02*
X128149286Y-87987200D01*
X128149286Y-87987200D02*
X128101667Y-87939580D01*
X89856905Y-69694819D02*
X89856905Y-68694819D01*
X89856905Y-68694819D02*
X90095000Y-68694819D01*
X90095000Y-68694819D02*
X90237857Y-68742438D01*
X90237857Y-68742438D02*
X90333095Y-68837676D01*
X90333095Y-68837676D02*
X90380714Y-68932914D01*
X90380714Y-68932914D02*
X90428333Y-69123390D01*
X90428333Y-69123390D02*
X90428333Y-69266247D01*
X90428333Y-69266247D02*
X90380714Y-69456723D01*
X90380714Y-69456723D02*
X90333095Y-69551961D01*
X90333095Y-69551961D02*
X90237857Y-69647200D01*
X90237857Y-69647200D02*
X90095000Y-69694819D01*
X90095000Y-69694819D02*
X89856905Y-69694819D01*
X90809286Y-68790057D02*
X90856905Y-68742438D01*
X90856905Y-68742438D02*
X90952143Y-68694819D01*
X90952143Y-68694819D02*
X91190238Y-68694819D01*
X91190238Y-68694819D02*
X91285476Y-68742438D01*
X91285476Y-68742438D02*
X91333095Y-68790057D01*
X91333095Y-68790057D02*
X91380714Y-68885295D01*
X91380714Y-68885295D02*
X91380714Y-68980533D01*
X91380714Y-68980533D02*
X91333095Y-69123390D01*
X91333095Y-69123390D02*
X90761667Y-69694819D01*
X90761667Y-69694819D02*
X91380714Y-69694819D01*
X89696667Y-110157200D02*
X89839524Y-110204819D01*
X89839524Y-110204819D02*
X90077619Y-110204819D01*
X90077619Y-110204819D02*
X90172857Y-110157200D01*
X90172857Y-110157200D02*
X90220476Y-110109580D01*
X90220476Y-110109580D02*
X90268095Y-110014342D01*
X90268095Y-110014342D02*
X90268095Y-109919104D01*
X90268095Y-109919104D02*
X90220476Y-109823866D01*
X90220476Y-109823866D02*
X90172857Y-109776247D01*
X90172857Y-109776247D02*
X90077619Y-109728628D01*
X90077619Y-109728628D02*
X89887143Y-109681009D01*
X89887143Y-109681009D02*
X89791905Y-109633390D01*
X89791905Y-109633390D02*
X89744286Y-109585771D01*
X89744286Y-109585771D02*
X89696667Y-109490533D01*
X89696667Y-109490533D02*
X89696667Y-109395295D01*
X89696667Y-109395295D02*
X89744286Y-109300057D01*
X89744286Y-109300057D02*
X89791905Y-109252438D01*
X89791905Y-109252438D02*
X89887143Y-109204819D01*
X89887143Y-109204819D02*
X90125238Y-109204819D01*
X90125238Y-109204819D02*
X90268095Y-109252438D01*
X90601429Y-109204819D02*
X90839524Y-110204819D01*
X90839524Y-110204819D02*
X91030000Y-109490533D01*
X91030000Y-109490533D02*
X91220476Y-110204819D01*
X91220476Y-110204819D02*
X91458572Y-109204819D01*
X92268095Y-109538152D02*
X92268095Y-110204819D01*
X92030000Y-109157200D02*
X91791905Y-109871485D01*
X91791905Y-109871485D02*
X92410952Y-109871485D01*
X105956667Y-88247200D02*
X106099524Y-88294819D01*
X106099524Y-88294819D02*
X106337619Y-88294819D01*
X106337619Y-88294819D02*
X106432857Y-88247200D01*
X106432857Y-88247200D02*
X106480476Y-88199580D01*
X106480476Y-88199580D02*
X106528095Y-88104342D01*
X106528095Y-88104342D02*
X106528095Y-88009104D01*
X106528095Y-88009104D02*
X106480476Y-87913866D01*
X106480476Y-87913866D02*
X106432857Y-87866247D01*
X106432857Y-87866247D02*
X106337619Y-87818628D01*
X106337619Y-87818628D02*
X106147143Y-87771009D01*
X106147143Y-87771009D02*
X106051905Y-87723390D01*
X106051905Y-87723390D02*
X106004286Y-87675771D01*
X106004286Y-87675771D02*
X105956667Y-87580533D01*
X105956667Y-87580533D02*
X105956667Y-87485295D01*
X105956667Y-87485295D02*
X106004286Y-87390057D01*
X106004286Y-87390057D02*
X106051905Y-87342438D01*
X106051905Y-87342438D02*
X106147143Y-87294819D01*
X106147143Y-87294819D02*
X106385238Y-87294819D01*
X106385238Y-87294819D02*
X106528095Y-87342438D01*
X106861429Y-87294819D02*
X107099524Y-88294819D01*
X107099524Y-88294819D02*
X107290000Y-87580533D01*
X107290000Y-87580533D02*
X107480476Y-88294819D01*
X107480476Y-88294819D02*
X107718572Y-87294819D01*
X108004286Y-87294819D02*
X108623333Y-87294819D01*
X108623333Y-87294819D02*
X108290000Y-87675771D01*
X108290000Y-87675771D02*
X108432857Y-87675771D01*
X108432857Y-87675771D02*
X108528095Y-87723390D01*
X108528095Y-87723390D02*
X108575714Y-87771009D01*
X108575714Y-87771009D02*
X108623333Y-87866247D01*
X108623333Y-87866247D02*
X108623333Y-88104342D01*
X108623333Y-88104342D02*
X108575714Y-88199580D01*
X108575714Y-88199580D02*
X108528095Y-88247200D01*
X108528095Y-88247200D02*
X108432857Y-88294819D01*
X108432857Y-88294819D02*
X108147143Y-88294819D01*
X108147143Y-88294819D02*
X108051905Y-88247200D01*
X108051905Y-88247200D02*
X108004286Y-88199580D01*
X81684761Y-121330057D02*
X81589523Y-121282438D01*
X81589523Y-121282438D02*
X81494285Y-121187200D01*
X81494285Y-121187200D02*
X81351428Y-121044342D01*
X81351428Y-121044342D02*
X81256190Y-120996723D01*
X81256190Y-120996723D02*
X81160952Y-120996723D01*
X81208571Y-121234819D02*
X81113333Y-121187200D01*
X81113333Y-121187200D02*
X81018095Y-121091961D01*
X81018095Y-121091961D02*
X80970476Y-120901485D01*
X80970476Y-120901485D02*
X80970476Y-120568152D01*
X80970476Y-120568152D02*
X81018095Y-120377676D01*
X81018095Y-120377676D02*
X81113333Y-120282438D01*
X81113333Y-120282438D02*
X81208571Y-120234819D01*
X81208571Y-120234819D02*
X81399047Y-120234819D01*
X81399047Y-120234819D02*
X81494285Y-120282438D01*
X81494285Y-120282438D02*
X81589523Y-120377676D01*
X81589523Y-120377676D02*
X81637142Y-120568152D01*
X81637142Y-120568152D02*
X81637142Y-120901485D01*
X81637142Y-120901485D02*
X81589523Y-121091961D01*
X81589523Y-121091961D02*
X81494285Y-121187200D01*
X81494285Y-121187200D02*
X81399047Y-121234819D01*
X81399047Y-121234819D02*
X81208571Y-121234819D01*
X82589523Y-121234819D02*
X82018095Y-121234819D01*
X82303809Y-121234819D02*
X82303809Y-120234819D01*
X82303809Y-120234819D02*
X82208571Y-120377676D01*
X82208571Y-120377676D02*
X82113333Y-120472914D01*
X82113333Y-120472914D02*
X82018095Y-120520533D01*
D12*
G04 #@! TO.C,G\u002A\u002A\u002A*
G36*
X114492400Y-113262839D02*
G01*
X114516142Y-113330568D01*
X114509311Y-113390881D01*
X114460532Y-113425691D01*
X114452788Y-113426487D01*
X114401660Y-113398362D01*
X114396265Y-113390881D01*
X114389568Y-113329703D01*
X114413592Y-113262151D01*
X114452788Y-113230801D01*
X114492400Y-113262839D01*
G37*
G36*
X116476190Y-112482960D02*
G01*
X116543482Y-112541089D01*
X116585323Y-112587374D01*
X116705267Y-112730240D01*
X116909690Y-112669533D01*
X117037154Y-112637167D01*
X117100292Y-112641942D01*
X117105672Y-112692508D01*
X117059857Y-112797517D01*
X117038211Y-112838864D01*
X116965589Y-112975278D01*
X117078989Y-113118456D01*
X117146273Y-113208135D01*
X117186918Y-113271423D01*
X117192388Y-113285696D01*
X117157371Y-113294884D01*
X117067223Y-113293028D01*
X116983789Y-113285242D01*
X116862370Y-113273361D01*
X116794474Y-113280420D01*
X116755985Y-113315389D01*
X116725187Y-113381446D01*
X116665245Y-113503214D01*
X116614019Y-113548045D01*
X116565336Y-113515848D01*
X116513023Y-113406529D01*
X116502553Y-113378122D01*
X116457217Y-113260436D01*
X116415733Y-113197661D01*
X116356920Y-113170546D01*
X116262628Y-113160061D01*
X116147465Y-113140820D01*
X116105395Y-113102878D01*
X116124717Y-113065377D01*
X116257639Y-113065377D01*
X116374512Y-113088751D01*
X116468313Y-113129179D01*
X116534731Y-113219136D01*
X116552506Y-113258408D01*
X116613626Y-113404690D01*
X116669434Y-113298177D01*
X116726994Y-113222388D01*
X116811536Y-113193919D01*
X116865473Y-113191664D01*
X117005704Y-113191664D01*
X116941825Y-113094172D01*
X116902616Y-113019286D01*
X116902844Y-112949471D01*
X116934469Y-112861404D01*
X116990991Y-112726127D01*
X116893456Y-112763210D01*
X116769017Y-112796399D01*
X116675214Y-112777280D01*
X116583983Y-112704229D01*
X116487919Y-112608165D01*
X116487919Y-112739887D01*
X116464757Y-112859029D01*
X116383934Y-112958899D01*
X116372779Y-112968493D01*
X116257639Y-113065377D01*
X116124717Y-113065377D01*
X116136292Y-113042912D01*
X116240032Y-112957602D01*
X116254582Y-112947429D01*
X116350135Y-112873667D01*
X116395611Y-112805972D01*
X116409117Y-112711972D01*
X116409645Y-112670207D01*
X116415574Y-112559774D01*
X116430459Y-112484978D01*
X116437512Y-112472374D01*
X116476190Y-112482960D01*
G37*
G36*
X120552692Y-113282804D02*
G01*
X120558181Y-113325922D01*
X120581774Y-113406179D01*
X120643174Y-113433549D01*
X120715952Y-113461653D01*
X120744967Y-113503798D01*
X120722141Y-113537326D01*
X120682518Y-113543898D01*
X120625338Y-113561981D01*
X120625115Y-113622172D01*
X120618456Y-113683991D01*
X120574563Y-113701264D01*
X120522694Y-113670755D01*
X120502586Y-113635733D01*
X120478551Y-113593341D01*
X120446758Y-113614504D01*
X120426098Y-113641662D01*
X120375180Y-113684489D01*
X120348774Y-113670770D01*
X120338786Y-113601223D01*
X120346987Y-113566998D01*
X120343638Y-113514440D01*
X120307977Y-113504761D01*
X120251452Y-113488187D01*
X120255126Y-113453541D01*
X120312330Y-113423440D01*
X120333143Y-113419424D01*
X120412264Y-113374857D01*
X120433707Y-113318860D01*
X120466193Y-113246180D01*
X120515290Y-113234697D01*
X120552692Y-113282804D01*
G37*
G36*
X118663961Y-113642689D02*
G01*
X118679599Y-113721243D01*
X118700327Y-113804594D01*
X118738304Y-113842842D01*
X118790460Y-113883026D01*
X118785444Y-113922863D01*
X118742869Y-113935269D01*
X118690300Y-113968059D01*
X118668259Y-114013544D01*
X118631029Y-114081752D01*
X118588622Y-114081029D01*
X118563270Y-114015766D01*
X118562187Y-113992598D01*
X118553870Y-113924148D01*
X118517381Y-113918995D01*
X118489059Y-113932515D01*
X118412883Y-113954721D01*
X118388543Y-113924768D01*
X118425790Y-113856499D01*
X118431188Y-113850387D01*
X118466315Y-113795806D01*
X118450842Y-113778721D01*
X118410779Y-113747122D01*
X118405639Y-113720015D01*
X118428726Y-113667493D01*
X118478098Y-113673838D01*
X118506588Y-113705472D01*
X118541501Y-113720768D01*
X118569548Y-113685904D01*
X118622595Y-113627442D01*
X118663961Y-113642689D01*
G37*
G36*
X119633267Y-114479058D02*
G01*
X119640032Y-114484495D01*
X119676429Y-114538902D01*
X119653718Y-114586225D01*
X119597849Y-114633951D01*
X119536344Y-114622030D01*
X119504916Y-114603553D01*
X119471919Y-114567956D01*
X119498095Y-114520804D01*
X119515791Y-114502423D01*
X119577594Y-114459381D01*
X119633267Y-114479058D01*
G37*
G36*
X113748958Y-114581427D02*
G01*
X113772876Y-114626227D01*
X113768283Y-114639099D01*
X113775571Y-114680702D01*
X113784478Y-114685317D01*
X113795311Y-114721699D01*
X113774592Y-114761505D01*
X113708037Y-114804318D01*
X113643388Y-114793244D01*
X113580247Y-114744955D01*
X113579099Y-114683969D01*
X113617682Y-114627895D01*
X113654333Y-114627065D01*
X113702139Y-114622078D01*
X113709183Y-114602478D01*
X113733002Y-114575421D01*
X113748958Y-114581427D01*
G37*
G36*
X116958415Y-114675229D02*
G01*
X117005196Y-114717701D01*
X117029311Y-114779097D01*
X117021968Y-114826818D01*
X117001619Y-114835424D01*
X116933372Y-114848408D01*
X116907110Y-114857241D01*
X116847219Y-114845895D01*
X116825748Y-114815196D01*
X116828688Y-114737905D01*
X116880150Y-114681420D01*
X116953799Y-114673524D01*
X116958415Y-114675229D01*
G37*
G36*
X112567895Y-115142033D02*
G01*
X112593799Y-115187735D01*
X112632244Y-115243777D01*
X112708607Y-115243478D01*
X112713848Y-115242198D01*
X112788082Y-115243005D01*
X112810517Y-115277473D01*
X112770665Y-115320906D01*
X112751040Y-115329778D01*
X112713910Y-115363730D01*
X112734642Y-115429745D01*
X112760146Y-115507532D01*
X112733875Y-115531051D01*
X112666401Y-115493361D01*
X112654083Y-115482637D01*
X112596879Y-115438194D01*
X112562806Y-115451761D01*
X112530149Y-115515491D01*
X112479950Y-115595270D01*
X112439014Y-115614078D01*
X112421643Y-115570754D01*
X112426553Y-115523896D01*
X112428164Y-115455964D01*
X112391978Y-115449809D01*
X112346197Y-115438229D01*
X112339383Y-115411664D01*
X112372260Y-115355971D01*
X112419220Y-115332458D01*
X112475220Y-115300657D01*
X112478729Y-115232698D01*
X112473683Y-115210482D01*
X112466248Y-115133917D01*
X112502033Y-115109579D01*
X112508620Y-115109383D01*
X112567895Y-115142033D01*
G37*
G36*
X110485578Y-113423229D02*
G01*
X110551087Y-113505402D01*
X110636448Y-113631289D01*
X110732680Y-113788481D01*
X110735503Y-113793314D01*
X110833557Y-113957330D01*
X110922517Y-114098743D01*
X110992499Y-114202309D01*
X111033245Y-114252480D01*
X111075082Y-114271412D01*
X111146952Y-114275633D01*
X111262326Y-114264237D01*
X111434674Y-114236316D01*
X111529348Y-114219060D01*
X111758628Y-114179525D01*
X111915920Y-114162481D01*
X112005185Y-114171493D01*
X112030388Y-114210126D01*
X111995490Y-114281945D01*
X111904454Y-114390512D01*
X111819455Y-114480008D01*
X111639317Y-114669930D01*
X111512775Y-114820895D01*
X111436133Y-114947277D01*
X111405690Y-115063448D01*
X111417749Y-115183782D01*
X111468610Y-115322653D01*
X111554576Y-115494432D01*
X111557161Y-115499307D01*
X111624089Y-115635782D01*
X111668244Y-115746613D01*
X111682868Y-115813867D01*
X111679558Y-115824000D01*
X111631521Y-115823855D01*
X111530849Y-115795734D01*
X111395653Y-115745158D01*
X111331277Y-115717821D01*
X111119417Y-115632436D01*
X110955550Y-115589172D01*
X110821534Y-115588285D01*
X110699225Y-115630029D01*
X110570479Y-115714660D01*
X110552374Y-115728786D01*
X110426828Y-115837986D01*
X110309162Y-115956516D01*
X110253339Y-116022314D01*
X110166881Y-116123937D01*
X110106375Y-116161830D01*
X110060786Y-116141251D01*
X110046172Y-116120981D01*
X110032745Y-116065678D01*
X110017461Y-115949813D01*
X110002307Y-115791005D01*
X109990583Y-115628496D01*
X109974838Y-115411719D01*
X109951897Y-115257115D01*
X109911141Y-115148658D01*
X109841952Y-115070320D01*
X109733712Y-115006074D01*
X109575803Y-114939895D01*
X109520141Y-114918414D01*
X109381725Y-114859015D01*
X109275549Y-114801618D01*
X109220193Y-114756618D01*
X109216474Y-114748532D01*
X109220945Y-114741095D01*
X109347804Y-114741095D01*
X109581421Y-114832127D01*
X109729275Y-114902626D01*
X109865816Y-114989077D01*
X109937141Y-115049277D01*
X109991802Y-115109906D01*
X110028626Y-115169181D01*
X110052685Y-115245426D01*
X110069047Y-115356967D01*
X110082785Y-115522129D01*
X110087747Y-115593582D01*
X110116251Y-116011770D01*
X110384938Y-115758304D01*
X110552199Y-115611263D01*
X110684530Y-115520520D01*
X110792630Y-115478774D01*
X110795187Y-115478281D01*
X110886261Y-115473578D01*
X111001955Y-115492855D01*
X111154330Y-115539603D01*
X111355449Y-115617313D01*
X111527471Y-115690168D01*
X111529572Y-115669624D01*
X111497745Y-115602156D01*
X111480550Y-115571952D01*
X111383674Y-115378185D01*
X111321466Y-115191286D01*
X111300194Y-115032762D01*
X111306218Y-114973723D01*
X111350017Y-114882797D01*
X111446441Y-114752484D01*
X111587633Y-114593088D01*
X111630350Y-114548519D01*
X111759065Y-114413566D01*
X111835967Y-114325317D01*
X111866058Y-114276637D01*
X111854342Y-114260392D01*
X111830600Y-114262969D01*
X111581739Y-114313608D01*
X111391340Y-114345870D01*
X111242442Y-114362305D01*
X111146439Y-114365778D01*
X111069807Y-114363604D01*
X111009074Y-114350334D01*
X110954687Y-114315844D01*
X110897092Y-114250011D01*
X110826736Y-114142713D01*
X110734064Y-113983825D01*
X110656537Y-113846672D01*
X110578318Y-113715839D01*
X110512406Y-113620302D01*
X110468652Y-113573677D01*
X110458372Y-113572712D01*
X110434888Y-113621297D01*
X110395052Y-113725766D01*
X110345868Y-113867293D01*
X110323456Y-113935269D01*
X110270225Y-114090889D01*
X110220614Y-114221238D01*
X110182676Y-114305678D01*
X110172544Y-114322013D01*
X110120908Y-114359979D01*
X110014472Y-114420810D01*
X109869897Y-114495420D01*
X109738682Y-114558593D01*
X109347804Y-114741095D01*
X109220945Y-114741095D01*
X109242950Y-114704488D01*
X109337995Y-114641013D01*
X109504193Y-114556502D01*
X109588276Y-114517755D01*
X109753076Y-114442559D01*
X109896182Y-114375785D01*
X109999355Y-114326029D01*
X110038970Y-114305394D01*
X110078792Y-114253540D01*
X110134548Y-114142952D01*
X110198859Y-113989616D01*
X110254225Y-113839094D01*
X110316566Y-113668950D01*
X110374569Y-113528266D01*
X110421445Y-113432452D01*
X110448900Y-113397182D01*
X110485578Y-113423229D01*
G37*
G36*
X111220748Y-118042014D02*
G01*
X111223029Y-118043884D01*
X111287981Y-118072985D01*
X111337902Y-118047560D01*
X111395790Y-118026148D01*
X111420952Y-118060854D01*
X111402306Y-118119360D01*
X111384493Y-118198584D01*
X111389885Y-118244687D01*
X111383827Y-118306046D01*
X111341328Y-118314944D01*
X111300141Y-118276081D01*
X111261067Y-118254700D01*
X111231299Y-118276081D01*
X111167384Y-118312911D01*
X111108261Y-118312459D01*
X111086995Y-118281436D01*
X111117001Y-118233617D01*
X111153636Y-118206949D01*
X111197997Y-118168075D01*
X111176756Y-118117529D01*
X111167627Y-118106216D01*
X111134722Y-118040177D01*
X111157642Y-118012911D01*
X111220748Y-118042014D01*
G37*
G36*
X109630536Y-118055314D02*
G01*
X109640012Y-118065552D01*
X109716609Y-118105596D01*
X109761858Y-118101620D01*
X109822469Y-118104738D01*
X109832173Y-118144883D01*
X109799143Y-118179378D01*
X109779750Y-118229691D01*
X109785866Y-118286132D01*
X109792042Y-118346387D01*
X109753875Y-118349719D01*
X109738094Y-118344123D01*
X109653719Y-118342060D01*
X109615367Y-118361073D01*
X109569950Y-118377078D01*
X109529370Y-118329852D01*
X109514926Y-118300240D01*
X109487265Y-118218599D01*
X109504510Y-118174116D01*
X109518964Y-118163653D01*
X109551176Y-118114337D01*
X109545454Y-118090886D01*
X109538409Y-118042218D01*
X109576326Y-118027801D01*
X109630536Y-118055314D01*
G37*
G36*
X122215837Y-118302299D02*
G01*
X122254402Y-118346456D01*
X122241749Y-118402916D01*
X122188079Y-118435455D01*
X122178185Y-118436040D01*
X122133974Y-118403430D01*
X122123667Y-118357766D01*
X122130161Y-118293134D01*
X122166688Y-118285301D01*
X122215837Y-118302299D01*
G37*
G36*
X109468980Y-119169652D02*
G01*
X109473286Y-119219252D01*
X109491913Y-119232029D01*
X109519157Y-119258045D01*
X109487142Y-119289702D01*
X109453976Y-119343452D01*
X109460099Y-119370955D01*
X109462712Y-119408666D01*
X109423573Y-119409405D01*
X109387791Y-119385115D01*
X109323904Y-119356216D01*
X109316022Y-119355762D01*
X109280412Y-119322464D01*
X109267118Y-119267704D01*
X109280285Y-119199318D01*
X109309595Y-119179645D01*
X109387170Y-119166250D01*
X109426886Y-119153426D01*
X109473713Y-119146715D01*
X109468980Y-119169652D01*
G37*
G36*
X122678629Y-119125198D02*
G01*
X122691155Y-119140508D01*
X122746197Y-119173052D01*
X122793617Y-119179645D01*
X122847670Y-119195147D01*
X122841206Y-119228567D01*
X122820571Y-119307409D01*
X122822400Y-119349591D01*
X122816856Y-119400566D01*
X122762599Y-119398822D01*
X122752933Y-119395875D01*
X122687571Y-119390859D01*
X122671586Y-119411831D01*
X122639647Y-119448160D01*
X122608693Y-119453605D01*
X122564129Y-119429272D01*
X122567358Y-119397428D01*
X122561802Y-119339033D01*
X122542192Y-119324046D01*
X122515549Y-119296250D01*
X122541332Y-119258043D01*
X122570747Y-119187558D01*
X122566498Y-119155308D01*
X122576043Y-119113193D01*
X122624862Y-119101798D01*
X122678629Y-119125198D01*
G37*
G36*
X120826802Y-120218056D02*
G01*
X120814923Y-120272239D01*
X120788802Y-120303169D01*
X120774722Y-120347001D01*
X120831272Y-120392430D01*
X120832141Y-120392897D01*
X120889421Y-120439699D01*
X120877139Y-120480965D01*
X120819906Y-120500051D01*
X120780287Y-120476857D01*
X120722966Y-120453585D01*
X120675993Y-120490257D01*
X120618124Y-120538633D01*
X120570571Y-120548240D01*
X120558181Y-120527304D01*
X120574579Y-120478547D01*
X120596602Y-120433373D01*
X120612703Y-120368938D01*
X120577033Y-120339331D01*
X120520619Y-120297675D01*
X120529045Y-120259311D01*
X120591534Y-120247746D01*
X120616887Y-120252419D01*
X120691095Y-120257929D01*
X120714730Y-120237094D01*
X120746417Y-120201715D01*
X120773435Y-120197211D01*
X120826802Y-120218056D01*
G37*
G36*
X122432197Y-120937665D02*
G01*
X122444916Y-120952667D01*
X122473026Y-121022969D01*
X122437213Y-121063957D01*
X122420434Y-121071138D01*
X122361872Y-121059404D01*
X122340834Y-121029533D01*
X122342688Y-120966321D01*
X122382525Y-120928769D01*
X122432197Y-120937665D01*
G37*
G36*
X119529298Y-121388644D02*
G01*
X119600713Y-121408502D01*
X119619659Y-121410462D01*
X119644354Y-121442999D01*
X119647266Y-121488736D01*
X119630840Y-121552464D01*
X119613762Y-121567011D01*
X119556050Y-121579570D01*
X119529298Y-121588828D01*
X119469178Y-121577869D01*
X119449051Y-121549691D01*
X119439688Y-121464882D01*
X119469175Y-121401663D01*
X119524127Y-121386898D01*
X119529298Y-121388644D01*
G37*
G36*
X122427945Y-115447804D02*
G01*
X122688507Y-115488577D01*
X122893557Y-115554291D01*
X123049912Y-115646963D01*
X123164389Y-115768612D01*
X123227474Y-115881454D01*
X123275395Y-116085100D01*
X123252045Y-116313349D01*
X123159661Y-116563910D01*
X123000482Y-116834496D01*
X122776746Y-117122816D01*
X122490691Y-117426582D01*
X122144554Y-117743504D01*
X121740576Y-118071293D01*
X121280993Y-118407660D01*
X120768043Y-118750315D01*
X120203966Y-119096970D01*
X119925857Y-119258331D01*
X119430512Y-119540670D01*
X119365347Y-119800450D01*
X119212440Y-120252728D01*
X118991259Y-120675951D01*
X118708321Y-121064150D01*
X118370144Y-121411358D01*
X117983246Y-121711608D01*
X117554145Y-121958932D01*
X117089357Y-122147362D01*
X116685863Y-122253806D01*
X116492507Y-122286241D01*
X116296397Y-122303086D01*
X116070386Y-122305856D01*
X115864598Y-122299592D01*
X115470169Y-122267753D01*
X115128019Y-122205077D01*
X115092793Y-122193907D01*
X116233528Y-122193907D01*
X116487919Y-122171469D01*
X116645739Y-122147768D01*
X116841397Y-122104500D01*
X117039518Y-122049786D01*
X117094545Y-122032221D01*
X117545626Y-121848870D01*
X117949514Y-121610646D01*
X118323259Y-121307392D01*
X118343913Y-121288026D01*
X118480029Y-121153896D01*
X118611041Y-121015019D01*
X118727762Y-120882451D01*
X118821003Y-120767250D01*
X118881576Y-120680472D01*
X118900293Y-120633176D01*
X118892607Y-120627719D01*
X118851891Y-120648984D01*
X118756243Y-120708604D01*
X118615047Y-120800316D01*
X118437683Y-120917856D01*
X118233533Y-121054961D01*
X118011980Y-121205369D01*
X117782404Y-121362815D01*
X117554188Y-121521038D01*
X117547708Y-121525559D01*
X117170665Y-121765766D01*
X116781277Y-121972086D01*
X116443518Y-122116128D01*
X116233528Y-122193907D01*
X115092793Y-122193907D01*
X114889306Y-122129383D01*
X115299523Y-122129383D01*
X115321467Y-122142933D01*
X115372511Y-122156060D01*
X115582832Y-122187637D01*
X115801189Y-122179856D01*
X116047030Y-122130551D01*
X116295248Y-122053291D01*
X116574971Y-121950097D01*
X116821795Y-121844208D01*
X117056563Y-121724637D01*
X117300118Y-121580398D01*
X117573302Y-121400503D01*
X117701170Y-121312172D01*
X117924708Y-121154497D01*
X118093107Y-121032138D01*
X118204541Y-120946622D01*
X118257179Y-120899475D01*
X118249196Y-120892224D01*
X118178761Y-120926397D01*
X118131679Y-120952582D01*
X117998791Y-121023968D01*
X117814692Y-121117149D01*
X117591731Y-121226395D01*
X117342254Y-121345974D01*
X117078611Y-121470155D01*
X116813150Y-121593207D01*
X116558217Y-121709398D01*
X116326162Y-121812996D01*
X116129333Y-121898271D01*
X115980077Y-121959491D01*
X115900862Y-121988023D01*
X115732238Y-122034886D01*
X115559121Y-122075954D01*
X115450785Y-122096853D01*
X115340146Y-122115902D01*
X115299523Y-122129383D01*
X114889306Y-122129383D01*
X114816441Y-122106278D01*
X114529917Y-121974635D01*
X114273101Y-121839682D01*
X114040064Y-121921051D01*
X113771551Y-122009554D01*
X113449068Y-122107534D01*
X113095328Y-122208765D01*
X112733044Y-122307021D01*
X112384928Y-122396075D01*
X112073693Y-122469702D01*
X111913205Y-122504066D01*
X111323799Y-122608815D01*
X110787641Y-122673922D01*
X110308571Y-122699122D01*
X109890426Y-122684151D01*
X109682784Y-122657869D01*
X109395661Y-122584171D01*
X109167667Y-122470475D01*
X109002213Y-122320642D01*
X108902710Y-122138534D01*
X108872570Y-121928011D01*
X108876748Y-121897225D01*
X108971984Y-121897225D01*
X108987546Y-122093263D01*
X109070441Y-122260580D01*
X109221248Y-122396558D01*
X109440549Y-122498574D01*
X109456863Y-122503864D01*
X109668804Y-122550439D01*
X109941477Y-122578366D01*
X110259626Y-122587779D01*
X110607997Y-122578808D01*
X110971332Y-122551586D01*
X111334376Y-122506245D01*
X111455996Y-122486560D01*
X112164214Y-122343905D01*
X112921601Y-122152588D01*
X113719016Y-121916165D01*
X114047303Y-121805993D01*
X114453815Y-121805993D01*
X114486266Y-121835847D01*
X114570471Y-121881925D01*
X114684303Y-121934599D01*
X114805634Y-121984240D01*
X114912337Y-122021219D01*
X114982166Y-122035907D01*
X115057009Y-122031521D01*
X115185081Y-122019212D01*
X115342022Y-122001386D01*
X115384931Y-121996097D01*
X115586317Y-121962004D01*
X115803692Y-121911564D01*
X115990087Y-121855680D01*
X115990530Y-121855523D01*
X116134966Y-121798165D01*
X116336081Y-121709584D01*
X116581736Y-121595852D01*
X116859793Y-121463043D01*
X117158114Y-121317232D01*
X117464560Y-121164490D01*
X117766993Y-121010893D01*
X118053275Y-120862513D01*
X118090046Y-120842974D01*
X118327365Y-120842974D01*
X118346933Y-120862542D01*
X118366502Y-120842974D01*
X118346933Y-120823405D01*
X118327365Y-120842974D01*
X118090046Y-120842974D01*
X118311267Y-120725423D01*
X118528831Y-120605699D01*
X118591695Y-120569014D01*
X118757873Y-120569014D01*
X118777442Y-120588582D01*
X118797010Y-120569014D01*
X118777442Y-120549445D01*
X118757873Y-120569014D01*
X118591695Y-120569014D01*
X118629595Y-120546897D01*
X118845743Y-120546897D01*
X118851096Y-120549445D01*
X118886812Y-120521893D01*
X118894853Y-120510308D01*
X118904826Y-120473719D01*
X118899472Y-120471171D01*
X118863757Y-120498723D01*
X118855716Y-120510308D01*
X118845743Y-120546897D01*
X118629595Y-120546897D01*
X118693829Y-120509412D01*
X118743808Y-120477895D01*
X118757723Y-120468623D01*
X118963154Y-120468623D01*
X118968508Y-120471171D01*
X119004224Y-120443619D01*
X119012264Y-120432034D01*
X119022237Y-120395445D01*
X119016884Y-120392897D01*
X118981168Y-120420448D01*
X118973127Y-120432034D01*
X118963154Y-120468623D01*
X118757723Y-120468623D01*
X118904174Y-120371040D01*
X119012430Y-120290497D01*
X119083084Y-120221482D01*
X119130643Y-120149211D01*
X119169617Y-120058898D01*
X119178603Y-120034804D01*
X119239225Y-119870204D01*
X119275479Y-119756998D01*
X119280006Y-119692550D01*
X119245445Y-119674226D01*
X119164437Y-119699389D01*
X119029621Y-119765404D01*
X118833638Y-119869635D01*
X118786970Y-119894560D01*
X118197653Y-120197564D01*
X117555517Y-120507501D01*
X116884045Y-120813861D01*
X116206724Y-121106130D01*
X115547038Y-121373799D01*
X115109362Y-121540520D01*
X114898983Y-121619466D01*
X114716564Y-121690296D01*
X114573813Y-121748268D01*
X114482441Y-121788638D01*
X114453815Y-121805993D01*
X114047303Y-121805993D01*
X114547316Y-121638190D01*
X115397361Y-121322221D01*
X116260008Y-120971812D01*
X117126116Y-120590520D01*
X117986544Y-120181900D01*
X118832150Y-119749509D01*
X119648672Y-119299831D01*
X120341679Y-118890794D01*
X120958641Y-118499818D01*
X121499655Y-118126815D01*
X121964817Y-117771702D01*
X122354223Y-117434391D01*
X122667971Y-117114797D01*
X122906157Y-116812834D01*
X123068877Y-116528415D01*
X123156229Y-116261456D01*
X123169305Y-116168919D01*
X123175678Y-116030631D01*
X123160075Y-115937954D01*
X123116146Y-115859803D01*
X123102559Y-115842113D01*
X122951039Y-115711208D01*
X122733044Y-115613154D01*
X122453021Y-115547680D01*
X122115413Y-115514511D01*
X121724666Y-115513374D01*
X121285226Y-115543996D01*
X120801537Y-115606104D01*
X120278044Y-115699423D01*
X119719193Y-115823682D01*
X119129429Y-115978606D01*
X118669814Y-116114659D01*
X118493949Y-116171664D01*
X118349136Y-116223368D01*
X118249737Y-116264297D01*
X118210117Y-116288978D01*
X118209953Y-116289905D01*
X118230358Y-116317358D01*
X118297590Y-116315845D01*
X118420675Y-116284102D01*
X118546276Y-116242741D01*
X118740985Y-116181428D01*
X118992760Y-116111014D01*
X119281652Y-116036386D01*
X119587714Y-115962433D01*
X119890998Y-115894041D01*
X120171554Y-115836097D01*
X120315596Y-115809274D01*
X120572079Y-115771975D01*
X120877827Y-115740318D01*
X121203887Y-115716974D01*
X121420737Y-115707268D01*
X121741455Y-115701065D01*
X121997114Y-115707582D01*
X122200275Y-115729425D01*
X122363497Y-115769203D01*
X122499340Y-115829524D01*
X122620365Y-115912994D01*
X122685275Y-115969820D01*
X122777553Y-116061360D01*
X122826030Y-116136089D01*
X122844733Y-116226769D01*
X122847703Y-116349179D01*
X122831715Y-116534332D01*
X122778918Y-116708668D01*
X122682062Y-116885342D01*
X122533897Y-117077509D01*
X122327174Y-117298325D01*
X122321526Y-117303993D01*
X121984874Y-117614454D01*
X121579470Y-117941823D01*
X121112026Y-118282224D01*
X120589256Y-118631784D01*
X120017871Y-118986626D01*
X119404585Y-119342876D01*
X118756110Y-119696659D01*
X118079158Y-120044100D01*
X117380443Y-120381325D01*
X116666677Y-120704457D01*
X115944573Y-121009623D01*
X115803019Y-121066845D01*
X115119812Y-121331736D01*
X114450970Y-121573047D01*
X113802094Y-121789411D01*
X113178784Y-121979458D01*
X112586641Y-122141819D01*
X112031265Y-122275126D01*
X111518255Y-122378010D01*
X111053213Y-122449103D01*
X110641737Y-122487035D01*
X110289430Y-122490438D01*
X110065265Y-122469178D01*
X109773510Y-122399094D01*
X109549431Y-122291692D01*
X109393488Y-122149769D01*
X109306141Y-121976120D01*
X109287853Y-121773541D01*
X109291109Y-121759006D01*
X109376147Y-121759006D01*
X109387963Y-121940840D01*
X109470655Y-122100592D01*
X109618363Y-122231635D01*
X109825230Y-122327345D01*
X109896807Y-122347889D01*
X110028285Y-122366498D01*
X110220225Y-122374549D01*
X110455637Y-122372815D01*
X110717533Y-122362068D01*
X110988923Y-122343083D01*
X111252818Y-122316631D01*
X111492232Y-122283485D01*
X111556640Y-122272370D01*
X112066420Y-122166552D01*
X112631823Y-122025821D01*
X113240438Y-121853965D01*
X113879851Y-121654775D01*
X114537651Y-121432040D01*
X115201425Y-121189549D01*
X115568538Y-121047558D01*
X116359487Y-120722472D01*
X117143603Y-120375216D01*
X117912192Y-120010507D01*
X118656558Y-119633060D01*
X119368008Y-119247592D01*
X120037847Y-118858818D01*
X120657380Y-118471455D01*
X121217913Y-118090219D01*
X121710751Y-117719826D01*
X121725960Y-117707682D01*
X122003882Y-117462613D01*
X122231031Y-117215221D01*
X122403826Y-116972051D01*
X122424975Y-116929260D01*
X122515038Y-116929260D01*
X122534606Y-116948829D01*
X122554175Y-116929260D01*
X122534606Y-116909692D01*
X122515038Y-116929260D01*
X122424975Y-116929260D01*
X122518685Y-116739651D01*
X122572026Y-116524567D01*
X122560266Y-116333346D01*
X122526643Y-116244360D01*
X122425987Y-116119765D01*
X122268465Y-116007717D01*
X122075487Y-115920409D01*
X121869851Y-115870227D01*
X121752034Y-115847350D01*
X121699935Y-115829306D01*
X122156019Y-115829306D01*
X122209536Y-115861850D01*
X122240798Y-115876197D01*
X122443978Y-115999802D01*
X122584985Y-116162156D01*
X122659563Y-116353487D01*
X122663455Y-116564026D01*
X122614878Y-116734832D01*
X122578190Y-116833739D01*
X122576200Y-116866131D01*
X122604748Y-116833439D01*
X122659676Y-116737096D01*
X122670791Y-116715565D01*
X122727332Y-116553068D01*
X122748462Y-116374886D01*
X122733479Y-116209754D01*
X122686003Y-116092332D01*
X122614194Y-116025732D01*
X122497433Y-115950194D01*
X122363424Y-115880361D01*
X122239867Y-115830877D01*
X122162804Y-115815766D01*
X122156019Y-115829306D01*
X121699935Y-115829306D01*
X121669009Y-115818595D01*
X121647807Y-115802798D01*
X121599226Y-115789342D01*
X121486481Y-115786425D01*
X121322816Y-115792972D01*
X121121475Y-115807907D01*
X120895701Y-115830153D01*
X120658738Y-115858636D01*
X120423830Y-115892278D01*
X120303790Y-115911988D01*
X120100005Y-115950505D01*
X119871968Y-115999169D01*
X119629936Y-116055174D01*
X119384166Y-116115714D01*
X119144913Y-116177985D01*
X118922436Y-116239180D01*
X118726989Y-116296494D01*
X118568831Y-116347121D01*
X118458218Y-116388257D01*
X118405407Y-116417095D01*
X118411888Y-116429477D01*
X118475871Y-116425982D01*
X118595231Y-116404434D01*
X118750216Y-116368755D01*
X118853324Y-116341859D01*
X119279802Y-116235854D01*
X119707637Y-116148544D01*
X120124614Y-116081314D01*
X120518523Y-116035546D01*
X120877150Y-116012623D01*
X121188283Y-116013930D01*
X121439708Y-116040849D01*
X121465706Y-116045953D01*
X121703305Y-116121702D01*
X121892424Y-116235783D01*
X122024756Y-116380460D01*
X122091992Y-116547995D01*
X122098674Y-116635495D01*
X122060164Y-116837717D01*
X121954017Y-117055232D01*
X121778967Y-117289390D01*
X121533746Y-117541540D01*
X121217088Y-117813030D01*
X120827727Y-118105212D01*
X120520687Y-118316469D01*
X119531668Y-118940392D01*
X118492225Y-119527188D01*
X117416026Y-120070626D01*
X116316738Y-120564477D01*
X115208027Y-121002509D01*
X114103559Y-121378492D01*
X113278674Y-121618033D01*
X112890826Y-121717474D01*
X112557810Y-121791951D01*
X112261308Y-121844344D01*
X111982998Y-121877535D01*
X111704561Y-121894404D01*
X111497935Y-121898050D01*
X111276267Y-121897764D01*
X111115219Y-121893801D01*
X110997151Y-121883799D01*
X110904419Y-121865394D01*
X110819381Y-121836226D01*
X110726004Y-121794685D01*
X110536625Y-121684409D01*
X110417587Y-121558389D01*
X110361038Y-121404423D01*
X110358933Y-121282589D01*
X110447593Y-121282589D01*
X110480427Y-121451659D01*
X110581297Y-121593114D01*
X110751468Y-121704121D01*
X110773898Y-121714106D01*
X110997050Y-121782701D01*
X111268994Y-121816479D01*
X111595288Y-121815467D01*
X111981487Y-121779695D01*
X112358952Y-121722336D01*
X112887479Y-121613880D01*
X113469364Y-121464134D01*
X114094084Y-121277049D01*
X114751119Y-121056574D01*
X115429947Y-120806658D01*
X116120049Y-120531251D01*
X116810903Y-120234302D01*
X117491988Y-119919760D01*
X118152783Y-119591576D01*
X118448204Y-119436494D01*
X119089752Y-119084062D01*
X119672143Y-118744591D01*
X120193736Y-118419381D01*
X120652890Y-118109730D01*
X121047964Y-117816938D01*
X121377317Y-117542304D01*
X121639306Y-117287126D01*
X121832291Y-117052704D01*
X121954630Y-116840337D01*
X122004683Y-116651323D01*
X122005888Y-116620784D01*
X121968978Y-116469582D01*
X121864700Y-116333255D01*
X121703859Y-116222669D01*
X121550101Y-116162426D01*
X121393295Y-116133442D01*
X121178532Y-116116812D01*
X120925110Y-116112291D01*
X120652327Y-116119635D01*
X120379479Y-116138598D01*
X120125863Y-116168937D01*
X120049398Y-116181454D01*
X119858752Y-116217642D01*
X119643458Y-116262482D01*
X119416340Y-116312840D01*
X119190221Y-116365585D01*
X118977926Y-116417582D01*
X118792280Y-116465700D01*
X118646106Y-116506805D01*
X118552228Y-116537766D01*
X118523050Y-116554314D01*
X118548895Y-116598017D01*
X118611917Y-116666339D01*
X118619905Y-116673941D01*
X118716761Y-116764932D01*
X119138472Y-116695564D01*
X119516594Y-116646013D01*
X119866930Y-116624859D01*
X120180959Y-116631305D01*
X120450159Y-116664552D01*
X120666010Y-116723801D01*
X120819989Y-116808256D01*
X120869561Y-116857692D01*
X120953901Y-116998184D01*
X120975749Y-117139934D01*
X120938320Y-117308262D01*
X120929752Y-117332113D01*
X120839281Y-117495833D01*
X120681885Y-117685912D01*
X120462733Y-117898220D01*
X120186991Y-118128624D01*
X119859827Y-118372995D01*
X119486407Y-118627200D01*
X119071900Y-118887108D01*
X118745256Y-119078683D01*
X118463714Y-119234178D01*
X118132493Y-119408677D01*
X117767541Y-119594443D01*
X117384807Y-119783734D01*
X117000241Y-119968812D01*
X116629792Y-120141936D01*
X116289410Y-120295368D01*
X115995043Y-120421367D01*
X115894494Y-120462059D01*
X115240339Y-120711510D01*
X114625456Y-120926599D01*
X114052339Y-121107046D01*
X113523483Y-121252573D01*
X113041382Y-121362902D01*
X112608531Y-121437753D01*
X112227424Y-121476849D01*
X111900556Y-121479910D01*
X111630422Y-121446658D01*
X111419515Y-121376815D01*
X111270331Y-121270102D01*
X111185364Y-121126240D01*
X111165269Y-120990199D01*
X111165552Y-120988650D01*
X111247177Y-120988650D01*
X111281074Y-121135541D01*
X111385004Y-121253822D01*
X111493172Y-121315088D01*
X111607426Y-121343799D01*
X111781065Y-121361618D01*
X111995969Y-121368596D01*
X112234016Y-121364784D01*
X112477088Y-121350232D01*
X112707063Y-121324992D01*
X112794118Y-121311435D01*
X113285665Y-121209836D01*
X113829912Y-121066889D01*
X114415895Y-120886786D01*
X115032649Y-120673719D01*
X115669212Y-120431881D01*
X116314619Y-120165462D01*
X116957906Y-119878656D01*
X117588111Y-119575654D01*
X118194269Y-119260647D01*
X118280436Y-119213719D01*
X118849295Y-118894196D01*
X119344969Y-118599096D01*
X119768406Y-118327723D01*
X120120557Y-118079383D01*
X120402371Y-117853381D01*
X120614796Y-117649022D01*
X120758783Y-117465613D01*
X120815557Y-117358662D01*
X120864814Y-117179292D01*
X120857145Y-117024591D01*
X120795161Y-116911848D01*
X120659802Y-116824455D01*
X120459648Y-116762392D01*
X120204248Y-116726499D01*
X119903152Y-116717614D01*
X119565909Y-116736578D01*
X119251757Y-116776190D01*
X119053485Y-116808908D01*
X118922184Y-116836014D01*
X118847179Y-116861777D01*
X118817794Y-116890469D01*
X118823354Y-116926360D01*
X118832987Y-116943716D01*
X118862746Y-116969392D01*
X118920688Y-116977412D01*
X119023907Y-116967970D01*
X119154239Y-116947346D01*
X119328765Y-116924652D01*
X119543911Y-116906893D01*
X119762051Y-116896923D01*
X119834144Y-116895790D01*
X120107983Y-116906672D01*
X120316395Y-116944902D01*
X120468355Y-117013519D01*
X120572840Y-117115563D01*
X120596768Y-117154049D01*
X120629270Y-117225074D01*
X120630314Y-117287680D01*
X120596515Y-117372223D01*
X120565811Y-117431602D01*
X120471100Y-117578191D01*
X120335628Y-117732722D01*
X120151828Y-117902269D01*
X119912129Y-118093904D01*
X119658027Y-118279981D01*
X119178156Y-118604069D01*
X118643329Y-118935264D01*
X118074556Y-119261800D01*
X117492845Y-119571910D01*
X116919206Y-119853830D01*
X116546625Y-120022489D01*
X115991059Y-120254431D01*
X115440567Y-120465315D01*
X114901757Y-120653524D01*
X114381239Y-120817440D01*
X113885623Y-120955448D01*
X113421516Y-121065929D01*
X112995530Y-121147267D01*
X112614273Y-121197845D01*
X112284355Y-121216045D01*
X112012385Y-121200251D01*
X111861835Y-121168648D01*
X111694357Y-121090619D01*
X111594647Y-120980242D01*
X111561218Y-120841646D01*
X111568223Y-120805314D01*
X111674052Y-120805314D01*
X111698496Y-120932501D01*
X111775189Y-121025266D01*
X111909175Y-121085589D01*
X112105495Y-121115445D01*
X112369192Y-121116813D01*
X112456794Y-121112298D01*
X112649151Y-121096453D01*
X112854763Y-121073342D01*
X113004714Y-121051794D01*
X113135829Y-121028745D01*
X113231789Y-121009695D01*
X113270973Y-120999077D01*
X113256727Y-120964047D01*
X113208470Y-120879538D01*
X113135395Y-120761343D01*
X113104613Y-120713323D01*
X113060546Y-120639116D01*
X113164584Y-120639116D01*
X113284135Y-120805588D01*
X113403686Y-120972059D01*
X113977158Y-120821896D01*
X114231399Y-120752339D01*
X114508889Y-120671535D01*
X114777395Y-120589139D01*
X115004682Y-120514806D01*
X115020277Y-120509442D01*
X115734665Y-120244519D01*
X116465369Y-119939593D01*
X117192678Y-119604099D01*
X117896885Y-119247475D01*
X118558278Y-118879157D01*
X119037783Y-118585971D01*
X119337261Y-118394285D01*
X119286466Y-118175773D01*
X119240665Y-118007672D01*
X119180804Y-117823822D01*
X119148471Y-117736789D01*
X119061269Y-117516317D01*
X118606258Y-117966394D01*
X118272960Y-118276305D01*
X117913341Y-118570644D01*
X117517406Y-118856204D01*
X117075162Y-119139779D01*
X116576614Y-119428161D01*
X116022594Y-119722595D01*
X115351720Y-120041021D01*
X114713931Y-120290827D01*
X114106450Y-120472972D01*
X113526501Y-120588411D01*
X113498561Y-120592395D01*
X113164584Y-120639116D01*
X113060546Y-120639116D01*
X113021533Y-120573419D01*
X112933147Y-120405926D01*
X112847771Y-120229057D01*
X112773723Y-120061021D01*
X112719322Y-119920030D01*
X112692884Y-119824295D01*
X112691617Y-119809104D01*
X112684148Y-119778369D01*
X112655646Y-119774939D01*
X112596975Y-119803772D01*
X112498996Y-119869827D01*
X112352569Y-119978062D01*
X112282856Y-120030878D01*
X112033135Y-120239407D01*
X111846383Y-120436108D01*
X111726023Y-120616625D01*
X111675481Y-120776603D01*
X111674052Y-120805314D01*
X111568223Y-120805314D01*
X111592582Y-120678963D01*
X111687252Y-120496321D01*
X111843742Y-120297852D01*
X112060564Y-120087685D01*
X112326991Y-119876647D01*
X112472186Y-119767019D01*
X112577201Y-119679764D01*
X112638035Y-119619969D01*
X112650683Y-119592724D01*
X112611142Y-119603117D01*
X112515410Y-119656238D01*
X112486147Y-119674329D01*
X112245017Y-119836826D01*
X111997927Y-120022949D01*
X111768974Y-120213511D01*
X111582256Y-120389325D01*
X111563141Y-120409252D01*
X111388465Y-120622211D01*
X111283059Y-120816442D01*
X111247177Y-120988650D01*
X111165552Y-120988650D01*
X111203704Y-120779726D01*
X111318712Y-120555779D01*
X111509851Y-120318859D01*
X111776678Y-120069464D01*
X112118750Y-119808096D01*
X112354816Y-119649036D01*
X112488910Y-119557960D01*
X112567750Y-119490116D01*
X112604744Y-119431147D01*
X112613343Y-119372191D01*
X112602661Y-119285269D01*
X112580064Y-119241972D01*
X112529203Y-119251496D01*
X112425378Y-119302398D01*
X112278030Y-119388803D01*
X112096596Y-119504832D01*
X111890514Y-119644612D01*
X111669223Y-119802265D01*
X111608443Y-119846874D01*
X111259648Y-120122151D01*
X110971293Y-120386809D01*
X110744645Y-120638014D01*
X110580967Y-120872934D01*
X110481528Y-121088736D01*
X110447593Y-121282589D01*
X110358933Y-121282589D01*
X110357898Y-121222715D01*
X110402629Y-121016906D01*
X110480952Y-120838448D01*
X110641503Y-120611755D01*
X110868517Y-120362570D01*
X111155455Y-120096637D01*
X111495778Y-119819698D01*
X111882944Y-119537497D01*
X112212187Y-119318101D01*
X112403599Y-119188223D01*
X112523925Y-119089777D01*
X112572963Y-119022930D01*
X112574206Y-119013977D01*
X112572643Y-118984533D01*
X112562238Y-118968553D01*
X112534415Y-118970310D01*
X112480598Y-118994077D01*
X112392210Y-119044127D01*
X112260676Y-119124733D01*
X112077420Y-119240168D01*
X111920748Y-119339556D01*
X111441431Y-119657801D01*
X111009776Y-119972944D01*
X110630908Y-120280534D01*
X110309949Y-120576123D01*
X110052024Y-120855263D01*
X109862255Y-121113504D01*
X109844819Y-121142019D01*
X109741849Y-121359278D01*
X109690459Y-121571685D01*
X109693970Y-121761023D01*
X109717385Y-121841430D01*
X109800087Y-121955378D01*
X109938606Y-122059355D01*
X110110586Y-122139430D01*
X110255331Y-122176616D01*
X110375834Y-122206344D01*
X110420989Y-122237695D01*
X110392769Y-122260104D01*
X110293146Y-122263008D01*
X110240279Y-122257257D01*
X110035406Y-122203419D01*
X109843815Y-122107447D01*
X109693872Y-121984567D01*
X109663354Y-121947600D01*
X109592980Y-121789155D01*
X109581976Y-121594008D01*
X109629546Y-121375531D01*
X109708031Y-121195208D01*
X109832923Y-120960385D01*
X109699534Y-121115534D01*
X109549932Y-121321537D01*
X109438438Y-121539892D01*
X109378321Y-121744195D01*
X109376147Y-121759006D01*
X109291109Y-121759006D01*
X109339083Y-121544827D01*
X109460293Y-121292775D01*
X109651943Y-121020180D01*
X109722720Y-120938268D01*
X109844202Y-120938268D01*
X109849555Y-120940816D01*
X109885271Y-120913265D01*
X109893312Y-120901679D01*
X109903285Y-120865090D01*
X109897932Y-120862542D01*
X109862216Y-120890094D01*
X109854175Y-120901679D01*
X109844202Y-120938268D01*
X109722720Y-120938268D01*
X109798480Y-120850588D01*
X110026338Y-120623726D01*
X110313311Y-120371025D01*
X110648140Y-120100913D01*
X111019564Y-119821817D01*
X111416324Y-119542164D01*
X111827159Y-119270382D01*
X112240810Y-119014898D01*
X112290462Y-118985524D01*
X112441477Y-118891119D01*
X112513113Y-118838125D01*
X112691705Y-118838125D01*
X112713188Y-119233690D01*
X112776015Y-119629717D01*
X112876349Y-120000118D01*
X112977866Y-120253800D01*
X113111717Y-120535651D01*
X113413520Y-120503315D01*
X113589747Y-120478311D01*
X113805335Y-120438840D01*
X114024329Y-120391742D01*
X114113409Y-120370136D01*
X114595412Y-120226443D01*
X115116661Y-120031653D01*
X115663421Y-119792292D01*
X116221959Y-119514884D01*
X116778542Y-119205953D01*
X117319437Y-118872025D01*
X117454325Y-118782906D01*
X117732060Y-118588592D01*
X118000330Y-118385581D01*
X118250755Y-118181489D01*
X118474958Y-117983930D01*
X118664561Y-117800518D01*
X118811186Y-117638869D01*
X118906455Y-117506598D01*
X118938515Y-117433947D01*
X118930135Y-117326739D01*
X118866484Y-117181315D01*
X118800357Y-117080067D01*
X118953654Y-117080067D01*
X118970059Y-117115078D01*
X119014179Y-117204784D01*
X119078497Y-117333978D01*
X119127453Y-117431682D01*
X119214113Y-117618586D01*
X119294574Y-117817048D01*
X119355419Y-117993154D01*
X119369955Y-118044622D01*
X119438754Y-118311690D01*
X119616880Y-118191502D01*
X119735691Y-118107002D01*
X119884959Y-117994843D01*
X120034965Y-117877421D01*
X120053997Y-117862108D01*
X120272152Y-117668146D01*
X120421776Y-117494924D01*
X120502008Y-117344434D01*
X120511989Y-117218667D01*
X120450859Y-117119613D01*
X120391848Y-117079931D01*
X120257022Y-117035340D01*
X120063998Y-117006357D01*
X119831459Y-116993888D01*
X119578088Y-116998841D01*
X119322569Y-117022123D01*
X119290675Y-117026471D01*
X119139890Y-117048487D01*
X119023951Y-117066579D01*
X118960453Y-117077951D01*
X118953654Y-117080067D01*
X118800357Y-117080067D01*
X118753475Y-117008285D01*
X118597017Y-116818258D01*
X118593154Y-116813992D01*
X118425207Y-116628881D01*
X118288227Y-116837073D01*
X118189381Y-116964978D01*
X118054628Y-117110830D01*
X117910846Y-117245829D01*
X117891254Y-117262450D01*
X117794861Y-117334709D01*
X117642538Y-117438815D01*
X117445411Y-117567953D01*
X117214604Y-117715307D01*
X116961242Y-117874062D01*
X116696449Y-118037403D01*
X116431350Y-118198514D01*
X116177071Y-118350581D01*
X115944735Y-118486787D01*
X115745467Y-118600318D01*
X115590392Y-118684359D01*
X115495704Y-118730026D01*
X115356559Y-118772467D01*
X115248193Y-118776255D01*
X115185915Y-118742349D01*
X115176825Y-118710000D01*
X115208165Y-118671856D01*
X115212785Y-118667973D01*
X115352405Y-118667973D01*
X115395743Y-118660294D01*
X115502306Y-118614521D01*
X115618234Y-118557731D01*
X115776956Y-118473221D01*
X115980249Y-118358435D01*
X116216229Y-118220695D01*
X116473009Y-118067325D01*
X116738706Y-117905650D01*
X117001434Y-117742993D01*
X117249308Y-117586679D01*
X117470442Y-117444030D01*
X117652951Y-117322371D01*
X117784951Y-117229026D01*
X117825440Y-117197609D01*
X117978384Y-117060203D01*
X118115117Y-116914877D01*
X118224808Y-116775549D01*
X118296627Y-116656138D01*
X118319743Y-116570561D01*
X118318802Y-116563582D01*
X118282602Y-116505874D01*
X118206482Y-116431327D01*
X118183007Y-116412429D01*
X118058219Y-116316316D01*
X117981179Y-116467326D01*
X117864049Y-116648201D01*
X117684272Y-116859308D01*
X117448611Y-117094695D01*
X117163829Y-117348413D01*
X116836690Y-117614511D01*
X116473957Y-117887039D01*
X116082392Y-118160046D01*
X115979136Y-118228765D01*
X115791280Y-118353123D01*
X115625297Y-118463995D01*
X115492653Y-118553642D01*
X115404811Y-118614327D01*
X115374468Y-118636854D01*
X115352405Y-118667973D01*
X115212785Y-118667973D01*
X115296179Y-118597881D01*
X115431859Y-118494820D01*
X115606198Y-118369417D01*
X115810185Y-118228417D01*
X115908647Y-118162080D01*
X116395276Y-117825759D01*
X116821939Y-117507825D01*
X117186282Y-117210349D01*
X117485954Y-116935400D01*
X117718602Y-116685047D01*
X117881872Y-116461359D01*
X117921101Y-116391867D01*
X117959394Y-116307443D01*
X117954072Y-116256748D01*
X117899822Y-116205250D01*
X117891372Y-116198625D01*
X117811341Y-116145670D01*
X117686446Y-116073290D01*
X117542245Y-115996228D01*
X117527016Y-115988461D01*
X117255019Y-115850425D01*
X117150723Y-116080184D01*
X116999629Y-116333856D01*
X116779619Y-116590844D01*
X116499626Y-116846277D01*
X116168579Y-117095284D01*
X115795408Y-117332993D01*
X115389043Y-117554532D01*
X114958416Y-117755030D01*
X114512456Y-117929615D01*
X114060094Y-118073417D01*
X113610259Y-118181562D01*
X113175264Y-118248819D01*
X112739189Y-118295577D01*
X112715403Y-118469113D01*
X112691705Y-118838125D01*
X112513113Y-118838125D01*
X112534220Y-118822511D01*
X112567827Y-118783972D01*
X112541434Y-118779772D01*
X112454178Y-118814180D01*
X112310030Y-118888783D01*
X111913467Y-119119403D01*
X111496243Y-119381587D01*
X111075718Y-119663248D01*
X110669252Y-119952301D01*
X110294205Y-120236658D01*
X109967938Y-120504233D01*
X109883817Y-120577952D01*
X109571434Y-120878283D01*
X109323478Y-121162997D01*
X109140531Y-121429472D01*
X109023172Y-121675088D01*
X108971984Y-121897225D01*
X108876748Y-121897225D01*
X108894605Y-121765657D01*
X108956577Y-121576166D01*
X109055225Y-121384751D01*
X109197881Y-121180793D01*
X109391874Y-120953673D01*
X109614815Y-120722284D01*
X110031812Y-120337492D01*
X110519109Y-119943415D01*
X111070023Y-119544933D01*
X111677870Y-119146925D01*
X112211900Y-118825614D01*
X112374421Y-118729402D01*
X112481090Y-118658788D01*
X112544851Y-118602037D01*
X112578651Y-118547416D01*
X112595436Y-118483190D01*
X112596471Y-118477041D01*
X112664533Y-118184387D01*
X112767369Y-118184387D01*
X113121185Y-118156117D01*
X113338625Y-118131335D01*
X113581042Y-118092446D01*
X113799203Y-118047447D01*
X113817131Y-118043082D01*
X114240959Y-117919923D01*
X114682015Y-117758833D01*
X115124519Y-117567683D01*
X115552685Y-117354346D01*
X115950733Y-117126694D01*
X116302878Y-116892599D01*
X116593338Y-116659933D01*
X116597159Y-116656481D01*
X116828155Y-116416265D01*
X117001922Y-116168876D01*
X117094074Y-115971736D01*
X117149139Y-115815663D01*
X116945725Y-115754588D01*
X116791189Y-115713455D01*
X116634898Y-115679850D01*
X116576522Y-115670163D01*
X116503641Y-115662459D01*
X116441857Y-115667966D01*
X116376268Y-115694374D01*
X116291974Y-115749370D01*
X116174072Y-115840646D01*
X116048171Y-115942807D01*
X115858980Y-116100147D01*
X115648456Y-116279768D01*
X115448814Y-116454013D01*
X115352942Y-116539686D01*
X115191413Y-116680500D01*
X115022717Y-116818837D01*
X114870888Y-116935380D01*
X114791502Y-116991035D01*
X114519407Y-117143888D01*
X114177793Y-117291965D01*
X113775401Y-117432085D01*
X113320971Y-117561066D01*
X113038459Y-117629188D01*
X112944024Y-117690421D01*
X112863966Y-117827073D01*
X112799240Y-118037445D01*
X112792970Y-118065606D01*
X112767369Y-118184387D01*
X112664533Y-118184387D01*
X112719563Y-117947767D01*
X112883793Y-117517868D01*
X113004714Y-117517868D01*
X113029814Y-117528274D01*
X113108918Y-117518132D01*
X113247733Y-117486214D01*
X113451969Y-117431293D01*
X113591456Y-117391642D01*
X113887064Y-117297211D01*
X114179047Y-117187047D01*
X114449400Y-117069040D01*
X114680119Y-116951077D01*
X114853199Y-116841048D01*
X114860239Y-116835727D01*
X114983857Y-116736863D01*
X115136997Y-116608083D01*
X115291926Y-116472843D01*
X115334492Y-116434622D01*
X115491021Y-116295523D01*
X115677518Y-116133609D01*
X115863233Y-115975461D01*
X115939453Y-115911695D01*
X116269335Y-115637735D01*
X116090167Y-115626013D01*
X115998826Y-115623356D01*
X115928700Y-115636758D01*
X115859601Y-115676949D01*
X115771342Y-115754660D01*
X115680892Y-115843561D01*
X115306812Y-116163437D01*
X114873535Y-116439272D01*
X114389174Y-116666971D01*
X113861847Y-116842440D01*
X113557416Y-116915000D01*
X113398532Y-116956532D01*
X113297338Y-117007255D01*
X113241235Y-117064991D01*
X113185589Y-117152929D01*
X113121686Y-117266260D01*
X113061982Y-117381137D01*
X113018932Y-117473711D01*
X113004714Y-117517868D01*
X112883793Y-117517868D01*
X112905727Y-117460451D01*
X113151251Y-117018726D01*
X113267810Y-116866823D01*
X113388932Y-116866823D01*
X113744718Y-116771609D01*
X113949061Y-116712634D01*
X114168641Y-116642512D01*
X114362107Y-116574571D01*
X114395387Y-116561890D01*
X114840555Y-116353185D01*
X115240696Y-116092442D01*
X115503695Y-115867249D01*
X115763882Y-115615784D01*
X115568197Y-115641569D01*
X115079164Y-115743954D01*
X114607503Y-115917125D01*
X114455209Y-115990838D01*
X114223751Y-116124449D01*
X113989132Y-116284447D01*
X113771094Y-116455565D01*
X113589382Y-116622537D01*
X113484479Y-116741493D01*
X113388932Y-116866823D01*
X113267810Y-116866823D01*
X113452429Y-116626221D01*
X113805550Y-116286570D01*
X114206905Y-116003404D01*
X114652786Y-115780353D01*
X115139483Y-115621050D01*
X115600076Y-115536298D01*
X116047321Y-115515711D01*
X116508233Y-115556701D01*
X116964543Y-115654943D01*
X117397985Y-115806114D01*
X117790290Y-116005892D01*
X117909114Y-116082782D01*
X118083818Y-116202982D01*
X118489336Y-116065383D01*
X119235536Y-115836036D01*
X119975375Y-115655284D01*
X120695582Y-115525730D01*
X121382885Y-115449979D01*
X121713019Y-115433003D01*
X122105055Y-115429952D01*
X122427945Y-115447804D01*
G37*
G36*
X113845627Y-122660607D02*
G01*
X113857904Y-122670678D01*
X113881900Y-122728518D01*
X113860008Y-122767589D01*
X113795603Y-122816184D01*
X113747161Y-122788411D01*
X113735265Y-122763555D01*
X113738353Y-122695520D01*
X113784860Y-122653844D01*
X113845627Y-122660607D01*
G37*
G36*
X118183191Y-123305670D02*
G01*
X118187146Y-123314285D01*
X118206882Y-123382395D01*
X118179391Y-123404566D01*
X118131679Y-123406456D01*
X118068204Y-123383743D01*
X118053405Y-123351937D01*
X118079900Y-123293482D01*
X118135237Y-123274660D01*
X118183191Y-123305670D01*
G37*
G36*
X112963763Y-123397633D02*
G01*
X112965577Y-123410643D01*
X112994046Y-123436813D01*
X113024283Y-123431440D01*
X113069033Y-123435995D01*
X113082963Y-123504669D01*
X113082989Y-123509714D01*
X113070335Y-123581698D01*
X113027227Y-123589074D01*
X113024283Y-123587989D01*
X112973888Y-123587175D01*
X112965577Y-123603370D01*
X112944553Y-123638220D01*
X112890404Y-123613504D01*
X112849804Y-123574015D01*
X112815867Y-123518820D01*
X112840019Y-123493968D01*
X112883268Y-123446457D01*
X112887303Y-123422763D01*
X112909510Y-123372809D01*
X112926440Y-123367319D01*
X112963763Y-123397633D01*
G37*
G36*
X116759171Y-123746642D02*
G01*
X116813355Y-123785401D01*
X116813689Y-123821252D01*
X116767123Y-123871106D01*
X116712126Y-123864288D01*
X116683702Y-123806115D01*
X116683605Y-123801491D01*
X116703410Y-123746490D01*
X116759171Y-123746642D01*
G37*
G36*
X121600791Y-121876002D02*
G01*
X121642621Y-121966402D01*
X121654652Y-122007303D01*
X121710618Y-122209061D01*
X121769546Y-122394886D01*
X121825722Y-122548839D01*
X121873434Y-122654981D01*
X121900833Y-122694118D01*
X121958195Y-122711947D01*
X122074217Y-122729483D01*
X122229319Y-122744160D01*
X122330265Y-122750392D01*
X122495214Y-122760380D01*
X122628703Y-122771784D01*
X122712847Y-122782894D01*
X122732342Y-122788834D01*
X122738611Y-122845510D01*
X122673498Y-122929794D01*
X122538311Y-123040265D01*
X122436015Y-123110716D01*
X122248966Y-123244007D01*
X122126923Y-123356910D01*
X122062163Y-123457979D01*
X122046403Y-123542360D01*
X122059178Y-123618125D01*
X122091737Y-123741076D01*
X122137082Y-123884848D01*
X122137969Y-123887455D01*
X122177744Y-124020221D01*
X122198112Y-124122267D01*
X122195169Y-124173355D01*
X122193416Y-124174898D01*
X122146846Y-124164636D01*
X122054058Y-124118197D01*
X121932653Y-124044728D01*
X121894283Y-124019456D01*
X121755619Y-123931798D01*
X121628476Y-123860720D01*
X121536690Y-123819364D01*
X121525105Y-123815923D01*
X121403859Y-123820609D01*
X121244889Y-123880528D01*
X121060071Y-123990359D01*
X120943920Y-124076254D01*
X120850709Y-124146890D01*
X120786399Y-124180830D01*
X120746647Y-124170362D01*
X120727106Y-124107775D01*
X120723431Y-123985356D01*
X120731276Y-123795394D01*
X120736165Y-123707560D01*
X120763604Y-123225922D01*
X120641243Y-123122962D01*
X120524672Y-123035324D01*
X120390677Y-122948441D01*
X120362415Y-122932062D01*
X120268675Y-122869573D01*
X120226319Y-122826983D01*
X120385097Y-122826983D01*
X120404804Y-122854483D01*
X120469582Y-122891935D01*
X120479907Y-122897346D01*
X120599440Y-122975294D01*
X120716931Y-123074813D01*
X120734298Y-123092395D01*
X120800821Y-123182966D01*
X120840440Y-123294806D01*
X120854833Y-123442189D01*
X120845672Y-123639385D01*
X120822429Y-123843225D01*
X120793148Y-124064740D01*
X121050530Y-123892146D01*
X121227087Y-123785325D01*
X121363925Y-123730328D01*
X121443773Y-123719553D01*
X121626586Y-123753762D01*
X121832502Y-123857618D01*
X121954177Y-123942845D01*
X122078215Y-124037124D01*
X122022667Y-123852550D01*
X121977786Y-123647164D01*
X121970963Y-123467773D01*
X122002866Y-123334687D01*
X122005458Y-123329670D01*
X122054427Y-123275988D01*
X122151652Y-123195104D01*
X122279176Y-123101567D01*
X122328340Y-123068068D01*
X122612881Y-122878105D01*
X122256543Y-122858259D01*
X122064627Y-122841728D01*
X121920733Y-122817332D01*
X121839309Y-122787596D01*
X121835509Y-122784719D01*
X121795395Y-122724440D01*
X121743559Y-122609335D01*
X121688881Y-122460093D01*
X121667638Y-122393625D01*
X121619192Y-122240691D01*
X121576878Y-122117015D01*
X121547233Y-122041294D01*
X121539759Y-122027836D01*
X121510522Y-122046387D01*
X121452475Y-122119645D01*
X121375565Y-122234306D01*
X121329738Y-122308679D01*
X121241270Y-122452419D01*
X121167404Y-122551385D01*
X121089336Y-122618002D01*
X120988264Y-122664693D01*
X120845383Y-122703883D01*
X120675593Y-122740875D01*
X120512571Y-122776512D01*
X120418379Y-122803103D01*
X120385097Y-122826983D01*
X120226319Y-122826983D01*
X120212803Y-122813392D01*
X120205947Y-122795261D01*
X120211460Y-122767850D01*
X120236388Y-122745227D01*
X120293310Y-122723244D01*
X120394808Y-122697755D01*
X120553462Y-122664612D01*
X120675593Y-122640452D01*
X120831776Y-122606885D01*
X120960049Y-122573909D01*
X121039612Y-122547073D01*
X121052396Y-122539928D01*
X121090816Y-122492943D01*
X121158331Y-122395181D01*
X121243873Y-122263050D01*
X121300036Y-122172814D01*
X121391439Y-122032146D01*
X121473405Y-121921050D01*
X121534672Y-121854032D01*
X121557702Y-121840970D01*
X121600791Y-121876002D01*
G37*
G36*
X111585469Y-124143534D02*
G01*
X111595777Y-124189199D01*
X111567587Y-124253665D01*
X111506123Y-124266754D01*
X111468017Y-124244078D01*
X111457629Y-124189767D01*
X111492044Y-124132635D01*
X111541259Y-124110924D01*
X111585469Y-124143534D01*
G37*
G36*
X116019345Y-124451019D02*
G01*
X116031601Y-124472943D01*
X116058329Y-124497947D01*
X116091939Y-124463486D01*
X116138626Y-124427436D01*
X116176603Y-124449284D01*
X116199946Y-124496584D01*
X116175890Y-124521204D01*
X116159405Y-124558618D01*
X116198028Y-124597958D01*
X116243834Y-124658496D01*
X116227847Y-124703961D01*
X116165999Y-124710039D01*
X116133310Y-124696710D01*
X116075286Y-124677085D01*
X116057867Y-124716647D01*
X116057411Y-124735741D01*
X116036264Y-124803176D01*
X115991176Y-124807662D01*
X115954152Y-124756687D01*
X115904875Y-124704673D01*
X115877106Y-124697981D01*
X115828300Y-124675836D01*
X115834072Y-124629858D01*
X115882460Y-124594275D01*
X115924044Y-124543578D01*
X115918960Y-124497661D01*
X115925193Y-124439932D01*
X115969645Y-124421973D01*
X116019345Y-124451019D01*
G37*
G36*
X113620989Y-124093606D02*
G01*
X113703265Y-124148169D01*
X113734070Y-124171034D01*
X113821087Y-124231896D01*
X113881994Y-124248111D01*
X113950857Y-124225091D01*
X113980428Y-124210171D01*
X114101825Y-124159733D01*
X114180073Y-124152874D01*
X114205960Y-124189240D01*
X114198508Y-124218551D01*
X114145630Y-124360955D01*
X114129077Y-124455285D01*
X114150152Y-124523470D01*
X114210156Y-124587439D01*
X114220970Y-124596661D01*
X114308779Y-124682741D01*
X114326048Y-124738173D01*
X114270761Y-124767747D01*
X114145353Y-124776256D01*
X114029961Y-124780061D01*
X113968171Y-124800506D01*
X113935375Y-124851127D01*
X113919729Y-124900385D01*
X113876116Y-125005127D01*
X113827789Y-125031740D01*
X113774788Y-124980226D01*
X113733969Y-124895295D01*
X113687928Y-124795799D01*
X113637481Y-124750103D01*
X113554145Y-124737526D01*
X113516124Y-124737118D01*
X113412926Y-124729514D01*
X113348163Y-124710612D01*
X113341213Y-124704183D01*
X113354583Y-124660077D01*
X113363057Y-124649060D01*
X113469089Y-124649060D01*
X113576300Y-124649060D01*
X113688437Y-124683020D01*
X113767004Y-124768799D01*
X113788702Y-124852226D01*
X113797884Y-124886887D01*
X113831245Y-124858136D01*
X113845996Y-124839195D01*
X113895581Y-124765147D01*
X113914978Y-124726359D01*
X113958991Y-124697667D01*
X114046755Y-124683004D01*
X114047193Y-124682987D01*
X114166476Y-124678413D01*
X114092518Y-124578225D01*
X114043528Y-124489098D01*
X114048379Y-124403060D01*
X114060287Y-124368288D01*
X114084056Y-124294072D01*
X114070205Y-124275286D01*
X114032794Y-124287607D01*
X113887588Y-124331865D01*
X113789049Y-124320737D01*
X113750932Y-124290189D01*
X113688562Y-124234134D01*
X113657416Y-124249141D01*
X113660926Y-124328580D01*
X113653146Y-124427098D01*
X113583408Y-124529579D01*
X113574589Y-124538942D01*
X113469089Y-124649060D01*
X113363057Y-124649060D01*
X113411698Y-124585821D01*
X113451200Y-124544914D01*
X113531903Y-124457557D01*
X113565404Y-124381617D01*
X113565579Y-124279558D01*
X113561999Y-124245184D01*
X113556455Y-124141542D01*
X113564991Y-124079566D01*
X113573203Y-124071787D01*
X113620989Y-124093606D01*
G37*
D13*
G04 #@! TO.C,M1*
X89510000Y-101710000D02*
X90890000Y-101710000D01*
X89510000Y-103090000D02*
X89510000Y-101710000D01*
X89510000Y-104360000D02*
X89510000Y-107010000D01*
X89510000Y-104360000D02*
X92270000Y-104360000D01*
X89510000Y-107010000D02*
X92270000Y-107010000D01*
X92270000Y-104360000D02*
X92270000Y-107010000D01*
G04 #@! TO.C,SW2*
X87350000Y-88500000D02*
X87350000Y-90000000D01*
X88600000Y-92500000D02*
X93100000Y-92500000D01*
X93100000Y-86000000D02*
X88600000Y-86000000D01*
X94350000Y-90000000D02*
X94350000Y-88500000D01*
G04 #@! TO.C,R2*
X87630000Y-79930000D02*
X94170000Y-79930000D01*
X87630000Y-80260000D02*
X87630000Y-79930000D01*
X87630000Y-82340000D02*
X87630000Y-82670000D01*
X87630000Y-82670000D02*
X94170000Y-82670000D01*
X94170000Y-79930000D02*
X94170000Y-80260000D01*
X94170000Y-82670000D02*
X94170000Y-82340000D01*
G04 #@! TO.C,BT1*
X76635243Y-118768169D02*
G75*
G02*
X73310000Y-119730000I-2015243J738169D01*
G01*
X61306646Y-119746530D02*
G75*
G02*
X57970000Y-118760000I-1306646J1716531D01*
G01*
X78090000Y-114810000D02*
X76650000Y-118760000D01*
X78090000Y-114180000D02*
X78090000Y-114810000D01*
X78090000Y-105720000D02*
X78090000Y-108180000D01*
X76010000Y-103640000D02*
X78090000Y-105720000D01*
X76010000Y-103640000D02*
X72510000Y-103640000D01*
X62110000Y-103640000D02*
X58610000Y-103640000D01*
X58610000Y-103640000D02*
X56530000Y-105720000D01*
X56530000Y-114810000D02*
X57970000Y-118760000D01*
X56530000Y-114180000D02*
X56530000Y-114810000D01*
X56530000Y-105720000D02*
X56530000Y-108180000D01*
G04 #@! TO.C,D1*
X55700000Y-91550000D02*
G75*
G02*
X50700000Y-91550000I-2500000J0D01*
G01*
X50700000Y-91550000D02*
G75*
G02*
X55700000Y-91550000I2500000J0D01*
G01*
X56190000Y-91550000D02*
G75*
G02*
X50640000Y-93094830I-2990000J0D01*
G01*
X50640000Y-90005170D02*
G75*
G02*
X56190000Y-91550000I2560000J-1544830D01*
G01*
X50640000Y-90005000D02*
X50640000Y-93095000D01*
G04 #@! TO.C,SW1*
X77270000Y-92800000D02*
X77270000Y-91300000D01*
X76020000Y-88800000D02*
X71520000Y-88800000D01*
X71520000Y-95300000D02*
X76020000Y-95300000D01*
X70270000Y-91300000D02*
X70270000Y-92800000D01*
G04 #@! TO.C,R4*
X99070000Y-117130000D02*
X99070000Y-117460000D01*
X99070000Y-119870000D02*
X99070000Y-119540000D01*
X105610000Y-117130000D02*
X99070000Y-117130000D01*
X105610000Y-117460000D02*
X105610000Y-117130000D01*
X105610000Y-119540000D02*
X105610000Y-119870000D01*
X105610000Y-119870000D02*
X99070000Y-119870000D01*
G04 #@! TO.C,R3*
X114960000Y-85470000D02*
X121500000Y-85470000D01*
X114960000Y-85800000D02*
X114960000Y-85470000D01*
X114960000Y-87880000D02*
X114960000Y-88210000D01*
X114960000Y-88210000D02*
X121500000Y-88210000D01*
X121500000Y-85470000D02*
X121500000Y-85800000D01*
X121500000Y-88210000D02*
X121500000Y-87880000D01*
G04 #@! TO.C,R1*
X59600000Y-85480000D02*
X59600000Y-85810000D01*
X59600000Y-88220000D02*
X59600000Y-87890000D01*
X66140000Y-85480000D02*
X59600000Y-85480000D01*
X66140000Y-85810000D02*
X66140000Y-85480000D01*
X66140000Y-87890000D02*
X66140000Y-88220000D01*
X66140000Y-88220000D02*
X59600000Y-88220000D01*
G04 #@! TO.C,D3*
X130435000Y-91540000D02*
G75*
G02*
X125435000Y-91540000I-2500000J0D01*
G01*
X125435000Y-91540000D02*
G75*
G02*
X130435000Y-91540000I2500000J0D01*
G01*
X130925000Y-91540000D02*
G75*
G02*
X125375000Y-93084830I-2990000J0D01*
G01*
X125375000Y-89995170D02*
G75*
G02*
X130925000Y-91540000I2560000J-1544830D01*
G01*
X125375000Y-89995000D02*
X125375000Y-93085000D01*
G04 #@! TO.C,D2*
X93095000Y-73200000D02*
G75*
G02*
X88095000Y-73200000I-2500000J0D01*
G01*
X88095000Y-73200000D02*
G75*
G02*
X93095000Y-73200000I2500000J0D01*
G01*
X93585000Y-73200000D02*
G75*
G02*
X88035000Y-74744830I-2990000J0D01*
G01*
X88035000Y-71655170D02*
G75*
G02*
X93585000Y-73200000I2560000J-1544830D01*
G01*
X88035000Y-71655000D02*
X88035000Y-74745000D01*
G04 #@! TO.C,SW4*
X94530000Y-114750000D02*
X94530000Y-113250000D01*
X93280000Y-110750000D02*
X88780000Y-110750000D01*
X88780000Y-117250000D02*
X93280000Y-117250000D01*
X87530000Y-113250000D02*
X87530000Y-114750000D01*
G04 #@! TO.C,SW3*
X110790000Y-92840000D02*
X110790000Y-91340000D01*
X109540000Y-88840000D02*
X105040000Y-88840000D01*
X105040000Y-95340000D02*
X109540000Y-95340000D01*
X103790000Y-91340000D02*
X103790000Y-92840000D01*
G04 #@! TO.C,Q1*
X81000000Y-119430000D02*
G75*
G02*
X79971555Y-115152316I780000J2450000D01*
G01*
X83591453Y-115137844D02*
G75*
G02*
X82600000Y-119430000I-1811453J-1842156D01*
G01*
X83580000Y-115130000D02*
X79980000Y-115130000D01*
G04 #@! TD*
%LPC*%
D14*
G04 #@! TO.C,M1*
X90890000Y-103090000D03*
D15*
X90890000Y-105630000D03*
G04 #@! TD*
D16*
G04 #@! TO.C,SW2*
X87600000Y-87000000D03*
X94100000Y-87000000D03*
X87600000Y-91500000D03*
X94100000Y-91500000D03*
G04 #@! TD*
D17*
G04 #@! TO.C,R2*
X87090000Y-81300000D03*
X94710000Y-81300000D03*
G04 #@! TD*
D18*
G04 #@! TO.C,BT1*
X67310000Y-111180000D03*
D19*
X78295000Y-111180000D03*
X56325000Y-111180000D03*
G04 #@! TD*
D20*
G04 #@! TO.C,D1*
X54470000Y-91550000D03*
D21*
X51930000Y-91550000D03*
G04 #@! TD*
D16*
G04 #@! TO.C,SW1*
X77020000Y-94300000D03*
X70520000Y-94300000D03*
X77020000Y-89800000D03*
X70520000Y-89800000D03*
G04 #@! TD*
D17*
G04 #@! TO.C,R4*
X98530000Y-118500000D03*
X106150000Y-118500000D03*
G04 #@! TD*
G04 #@! TO.C,R3*
X114420000Y-86840000D03*
X122040000Y-86840000D03*
G04 #@! TD*
G04 #@! TO.C,R1*
X59060000Y-86850000D03*
X66680000Y-86850000D03*
G04 #@! TD*
D20*
G04 #@! TO.C,D3*
X129205000Y-91540000D03*
D21*
X126665000Y-91540000D03*
G04 #@! TD*
D20*
G04 #@! TO.C,D2*
X91865000Y-73200000D03*
D21*
X89325000Y-73200000D03*
G04 #@! TD*
D16*
G04 #@! TO.C,SW4*
X94280000Y-116250000D03*
X87780000Y-116250000D03*
X94280000Y-111750000D03*
X87780000Y-111750000D03*
G04 #@! TD*
G04 #@! TO.C,SW3*
X110540000Y-94340000D03*
X104040000Y-94340000D03*
X110540000Y-89840000D03*
X104040000Y-89840000D03*
G04 #@! TD*
D22*
G04 #@! TO.C,Q1*
X80510000Y-116580000D03*
X81780000Y-118650000D03*
D23*
X83050000Y-116580000D03*
G04 #@! TD*
%LPD*%
M02*
