G04 #@! TF.GenerationSoftware,KiCad,Pcbnew,9.0.2*
G04 #@! TF.CreationDate,2025-07-01T12:20:16+05:30*
G04 #@! TF.ProjectId,solder,736f6c64-6572-42e6-9b69-6361645f7063,rev?*
G04 #@! TF.SameCoordinates,Original*
G04 #@! TF.FileFunction,Soldermask,Top*
G04 #@! TF.FilePolarity,Negative*
%FSLAX46Y46*%
G04 Gerber Fmt 4.6, Leading zero omitted, Abs format (unit mm)*
G04 Created by KiCad (PCBNEW 9.0.2) date 2025-07-01 12:20:16*
%MOMM*%
%LPD*%
G01*
G04 APERTURE LIST*
G04 Aperture macros list*
%AMRoundRect*
0 Rectangle with rounded corners*
0 $1 Rounding radius*
0 $2 $3 $4 $5 $6 $7 $8 $9 X,Y pos of 4 corners*
0 Add a 4 corners polygon primitive as box body*
4,1,4,$2,$3,$4,$5,$6,$7,$8,$9,$2,$3,0*
0 Add four circle primitives for the rounded corners*
1,1,$1+$1,$2,$3*
1,1,$1+$1,$4,$5*
1,1,$1+$1,$6,$7*
1,1,$1+$1,$8,$9*
0 Add four rect primitives between the rounded corners*
20,1,$1+$1,$2,$3,$4,$5,0*
20,1,$1+$1,$4,$5,$6,$7,0*
20,1,$1+$1,$6,$7,$8,$9,0*
20,1,$1+$1,$8,$9,$2,$3,0*%
G04 Aperture macros list end*
%ADD10R,1.700000X1.700000*%
%ADD11C,1.700000*%
%ADD12C,2.000000*%
%ADD13C,1.600000*%
%ADD14C,17.800000*%
%ADD15R,1.270000X5.080000*%
%ADD16C,1.800000*%
%ADD17R,1.800000X1.800000*%
%ADD18RoundRect,0.275000X0.275000X0.625000X-0.275000X0.625000X-0.275000X-0.625000X0.275000X-0.625000X0*%
%ADD19R,1.100000X1.800000*%
G04 APERTURE END LIST*
D10*
G04 #@! TO.C,M1*
X90890000Y-103090000D03*
D11*
X90890000Y-105630000D03*
G04 #@! TD*
D12*
G04 #@! TO.C,SW2*
X87600000Y-87000000D03*
X94100000Y-87000000D03*
X87600000Y-91500000D03*
X94100000Y-91500000D03*
G04 #@! TD*
D13*
G04 #@! TO.C,R2*
X87090000Y-81300000D03*
X94710000Y-81300000D03*
G04 #@! TD*
D14*
G04 #@! TO.C,BT1*
X67310000Y-111180000D03*
D15*
X78295000Y-111180000D03*
X56325000Y-111180000D03*
G04 #@! TD*
D16*
G04 #@! TO.C,D1*
X54470000Y-91550000D03*
D17*
X51930000Y-91550000D03*
G04 #@! TD*
D12*
G04 #@! TO.C,SW1*
X77020000Y-94300000D03*
X70520000Y-94300000D03*
X77020000Y-89800000D03*
X70520000Y-89800000D03*
G04 #@! TD*
D13*
G04 #@! TO.C,R4*
X98530000Y-118500000D03*
X106150000Y-118500000D03*
G04 #@! TD*
G04 #@! TO.C,R3*
X114420000Y-86840000D03*
X122040000Y-86840000D03*
G04 #@! TD*
G04 #@! TO.C,R1*
X59060000Y-86850000D03*
X66680000Y-86850000D03*
G04 #@! TD*
D16*
G04 #@! TO.C,D3*
X129205000Y-91540000D03*
D17*
X126665000Y-91540000D03*
G04 #@! TD*
D16*
G04 #@! TO.C,D2*
X91865000Y-73200000D03*
D17*
X89325000Y-73200000D03*
G04 #@! TD*
D12*
G04 #@! TO.C,SW4*
X94280000Y-116250000D03*
X87780000Y-116250000D03*
X94280000Y-111750000D03*
X87780000Y-111750000D03*
G04 #@! TD*
G04 #@! TO.C,SW3*
X110540000Y-94340000D03*
X104040000Y-94340000D03*
X110540000Y-89840000D03*
X104040000Y-89840000D03*
G04 #@! TD*
D18*
G04 #@! TO.C,Q1*
X80510000Y-116580000D03*
X81780000Y-118650000D03*
D19*
X83050000Y-116580000D03*
G04 #@! TD*
M02*
