G04 #@! TF.GenerationSoftware,KiCad,Pcbnew,9.0.2*
G04 #@! TF.CreationDate,2025-07-01T12:20:16+05:30*
G04 #@! TF.ProjectId,solder,736f6c64-6572-42e6-9b69-6361645f7063,rev?*
G04 #@! TF.SameCoordinates,Original*
G04 #@! TF.FileFunction,Copper,L1,Top*
G04 #@! TF.FilePolarity,Positive*
%FSLAX46Y46*%
G04 Gerber Fmt 4.6, Leading zero omitted, Abs format (unit mm)*
G04 Created by KiCad (PCBNEW 9.0.2) date 2025-07-01 12:20:16*
%MOMM*%
%LPD*%
G01*
G04 APERTURE LIST*
G04 Aperture macros list*
%AMRoundRect*
0 Rectangle with rounded corners*
0 $1 Rounding radius*
0 $2 $3 $4 $5 $6 $7 $8 $9 X,Y pos of 4 corners*
0 Add a 4 corners polygon primitive as box body*
4,1,4,$2,$3,$4,$5,$6,$7,$8,$9,$2,$3,0*
0 Add four circle primitives for the rounded corners*
1,1,$1+$1,$2,$3*
1,1,$1+$1,$4,$5*
1,1,$1+$1,$6,$7*
1,1,$1+$1,$8,$9*
0 Add four rect primitives between the rounded corners*
20,1,$1+$1,$2,$3,$4,$5,0*
20,1,$1+$1,$4,$5,$6,$7,0*
20,1,$1+$1,$6,$7,$8,$9,0*
20,1,$1+$1,$8,$9,$2,$3,0*%
G04 Aperture macros list end*
G04 #@! TA.AperFunction,ComponentPad*
%ADD10R,1.700000X1.700000*%
G04 #@! TD*
G04 #@! TA.AperFunction,ComponentPad*
%ADD11C,1.700000*%
G04 #@! TD*
G04 #@! TA.AperFunction,ComponentPad*
%ADD12C,2.000000*%
G04 #@! TD*
G04 #@! TA.AperFunction,ComponentPad*
%ADD13C,1.600000*%
G04 #@! TD*
G04 #@! TA.AperFunction,SMDPad,CuDef*
%ADD14C,17.800000*%
G04 #@! TD*
G04 #@! TA.AperFunction,SMDPad,CuDef*
%ADD15R,1.270000X5.080000*%
G04 #@! TD*
G04 #@! TA.AperFunction,ComponentPad*
%ADD16C,1.800000*%
G04 #@! TD*
G04 #@! TA.AperFunction,ComponentPad*
%ADD17R,1.800000X1.800000*%
G04 #@! TD*
G04 #@! TA.AperFunction,ComponentPad*
%ADD18RoundRect,0.275000X0.275000X0.625000X-0.275000X0.625000X-0.275000X-0.625000X0.275000X-0.625000X0*%
G04 #@! TD*
G04 #@! TA.AperFunction,ComponentPad*
%ADD19R,1.100000X1.800000*%
G04 #@! TD*
G04 #@! TA.AperFunction,Conductor*
%ADD20C,0.200000*%
G04 #@! TD*
G04 APERTURE END LIST*
D10*
G04 #@! TO.P,M1,1,+*
G04 #@! TO.N,Net-(BT1-+)*
X90890000Y-103090000D03*
D11*
G04 #@! TO.P,M1,2,-*
G04 #@! TO.N,Net-(M1--)*
X90890000Y-105630000D03*
G04 #@! TD*
D12*
G04 #@! TO.P,SW2,1,1*
G04 #@! TO.N,Net-(BT1-+)*
X87600000Y-87000000D03*
X94100000Y-87000000D03*
G04 #@! TO.P,SW2,2,2*
G04 #@! TO.N,Net-(R2-Pad1)*
X87600000Y-91500000D03*
X94100000Y-91500000D03*
G04 #@! TD*
D13*
G04 #@! TO.P,R2,1*
G04 #@! TO.N,Net-(R2-Pad1)*
X87090000Y-81300000D03*
G04 #@! TO.P,R2,2*
G04 #@! TO.N,Net-(D2-A)*
X94710000Y-81300000D03*
G04 #@! TD*
D14*
G04 #@! TO.P,BT1,2,-*
G04 #@! TO.N,Net-(BT1--)*
X67310000Y-111180000D03*
D15*
G04 #@! TO.P,BT1,1,+*
G04 #@! TO.N,Net-(BT1-+)*
X78295000Y-111180000D03*
X56325000Y-111180000D03*
G04 #@! TD*
D16*
G04 #@! TO.P,D1,2,A*
G04 #@! TO.N,Net-(D1-A)*
X54470000Y-91550000D03*
D17*
G04 #@! TO.P,D1,1,K*
G04 #@! TO.N,Net-(BT1--)*
X51930000Y-91550000D03*
G04 #@! TD*
D12*
G04 #@! TO.P,SW1,2,2*
G04 #@! TO.N,Net-(R1-Pad1)*
X77020000Y-94300000D03*
X70520000Y-94300000D03*
G04 #@! TO.P,SW1,1,1*
G04 #@! TO.N,Net-(BT1-+)*
X77020000Y-89800000D03*
X70520000Y-89800000D03*
G04 #@! TD*
D13*
G04 #@! TO.P,R4,2*
G04 #@! TO.N,Net-(R4-Pad2)*
X98530000Y-118500000D03*
G04 #@! TO.P,R4,1*
G04 #@! TO.N,Net-(Q1-B)*
X106150000Y-118500000D03*
G04 #@! TD*
G04 #@! TO.P,R3,1*
G04 #@! TO.N,Net-(R3-Pad1)*
X114420000Y-86840000D03*
G04 #@! TO.P,R3,2*
G04 #@! TO.N,Net-(D3-A)*
X122040000Y-86840000D03*
G04 #@! TD*
G04 #@! TO.P,R1,2*
G04 #@! TO.N,Net-(D1-A)*
X59060000Y-86850000D03*
G04 #@! TO.P,R1,1*
G04 #@! TO.N,Net-(R1-Pad1)*
X66680000Y-86850000D03*
G04 #@! TD*
D16*
G04 #@! TO.P,D3,2,A*
G04 #@! TO.N,Net-(D3-A)*
X129205000Y-91540000D03*
D17*
G04 #@! TO.P,D3,1,K*
G04 #@! TO.N,Net-(BT1--)*
X126665000Y-91540000D03*
G04 #@! TD*
D16*
G04 #@! TO.P,D2,2,A*
G04 #@! TO.N,Net-(D2-A)*
X91865000Y-73200000D03*
D17*
G04 #@! TO.P,D2,1,K*
G04 #@! TO.N,Net-(BT1--)*
X89325000Y-73200000D03*
G04 #@! TD*
D12*
G04 #@! TO.P,SW4,2,2*
G04 #@! TO.N,Net-(R4-Pad2)*
X94280000Y-116250000D03*
X87780000Y-116250000D03*
G04 #@! TO.P,SW4,1,1*
G04 #@! TO.N,Net-(BT1-+)*
X94280000Y-111750000D03*
X87780000Y-111750000D03*
G04 #@! TD*
G04 #@! TO.P,SW3,2,2*
G04 #@! TO.N,Net-(R3-Pad1)*
X110540000Y-94340000D03*
X104040000Y-94340000D03*
G04 #@! TO.P,SW3,1,1*
G04 #@! TO.N,Net-(BT1-+)*
X110540000Y-89840000D03*
X104040000Y-89840000D03*
G04 #@! TD*
D18*
G04 #@! TO.P,Q1,3,E*
G04 #@! TO.N,Net-(BT1--)*
X80510000Y-116580000D03*
G04 #@! TO.P,Q1,2,B*
G04 #@! TO.N,Net-(Q1-B)*
X81780000Y-118650000D03*
D19*
G04 #@! TO.P,Q1,1,C*
G04 #@! TO.N,Net-(M1--)*
X83050000Y-116580000D03*
G04 #@! TD*
D20*
G04 #@! TO.N,Net-(BT1--)*
X51930000Y-91550000D02*
X55389000Y-95009000D01*
X55389000Y-95009000D02*
X55389000Y-114021000D01*
X55389000Y-114021000D02*
X64469000Y-114021000D01*
X64469000Y-114021000D02*
X67310000Y-111180000D01*
G04 #@! TO.N,Net-(BT1-+)*
X56325000Y-111180000D02*
X56325000Y-108440000D01*
X56325000Y-108440000D02*
X62786000Y-101979000D01*
X78295000Y-108440000D02*
X78295000Y-111180000D01*
X62786000Y-101979000D02*
X71834000Y-101979000D01*
X71834000Y-101979000D02*
X78295000Y-108440000D01*
G04 #@! TO.N,Net-(BT1--)*
X80510000Y-116980000D02*
X73110000Y-116980000D01*
X73110000Y-116980000D02*
X67310000Y-111180000D01*
G04 #@! TO.N,Net-(BT1-+)*
X87780000Y-111750000D02*
X78865000Y-111750000D01*
X78865000Y-111750000D02*
X78295000Y-111180000D01*
X90890000Y-103090000D02*
X87780000Y-106200000D01*
X87780000Y-106200000D02*
X87780000Y-111750000D01*
G04 #@! TO.N,Net-(M1--)*
X90890000Y-105630000D02*
X95581000Y-110321000D01*
X95581000Y-110321000D02*
X95581000Y-112288892D01*
X95581000Y-112288892D02*
X92920892Y-114949000D01*
X92920892Y-114949000D02*
X85081000Y-114949000D01*
X85081000Y-114949000D02*
X83050000Y-116980000D01*
G04 #@! TO.N,Net-(D2-A)*
X91865000Y-73200000D02*
X94710000Y-76045000D01*
X94710000Y-76045000D02*
X94710000Y-81300000D01*
G04 #@! TO.N,Net-(BT1-+)*
X90890000Y-103090000D02*
X90890000Y-102990000D01*
X90890000Y-102990000D02*
X104040000Y-89840000D01*
X104040000Y-89840000D02*
X101200000Y-87000000D01*
X101200000Y-87000000D02*
X94100000Y-87000000D01*
X77020000Y-89800000D02*
X79820000Y-87000000D01*
X79820000Y-87000000D02*
X87600000Y-87000000D01*
G04 #@! TO.N,Net-(D3-A)*
X122040000Y-86840000D02*
X124505000Y-86840000D01*
X124505000Y-86840000D02*
X129205000Y-91540000D01*
G04 #@! TO.N,Net-(R3-Pad1)*
X114420000Y-86840000D02*
X114420000Y-90460000D01*
X114420000Y-90460000D02*
X110540000Y-94340000D01*
G04 #@! TO.N,Net-(R1-Pad1)*
X66680000Y-86850000D02*
X66680000Y-90460000D01*
X66680000Y-90460000D02*
X70520000Y-94300000D01*
G04 #@! TO.N,Net-(D1-A)*
X54470000Y-91550000D02*
X59060000Y-86960000D01*
X59060000Y-86960000D02*
X59060000Y-86850000D01*
G04 #@! TO.N,Net-(Q1-B)*
X81780000Y-118250000D02*
X83131000Y-119601000D01*
X83131000Y-119601000D02*
X105049000Y-119601000D01*
X105049000Y-119601000D02*
X106150000Y-118500000D01*
G04 #@! TO.N,Net-(R4-Pad2)*
X94280000Y-116250000D02*
X96530000Y-118500000D01*
X96530000Y-118500000D02*
X98530000Y-118500000D01*
X87780000Y-116250000D02*
X94280000Y-116250000D01*
G04 #@! TO.N,Net-(BT1-+)*
X87780000Y-111750000D02*
X94280000Y-111750000D01*
G04 #@! TO.N,Net-(R3-Pad1)*
X104040000Y-94340000D02*
X110540000Y-94340000D01*
G04 #@! TO.N,Net-(BT1-+)*
X104040000Y-89840000D02*
X110540000Y-89840000D01*
G04 #@! TO.N,Net-(R2-Pad1)*
X87600000Y-91500000D02*
X94100000Y-91500000D01*
G04 #@! TO.N,Net-(BT1-+)*
X87600000Y-87000000D02*
X94100000Y-87000000D01*
G04 #@! TO.N,Net-(R1-Pad1)*
X70520000Y-94300000D02*
X77020000Y-94300000D01*
G04 #@! TO.N,Net-(BT1-+)*
X70520000Y-89800000D02*
X77020000Y-89800000D01*
G04 #@! TO.N,Net-(R4-Pad2)*
X94390000Y-116250000D02*
X94730000Y-116590000D01*
X94280000Y-116250000D02*
X94390000Y-116250000D01*
G04 #@! TD*
M02*
